<svg width="228" height="78" viewBox="0 0 228 78" xmlns="http://www.w3.org/2000/svg">
  <title>The University of Bath logo - Inverse</title>
  <g fill="#FFF">
      <path d="M44.5 56.2C44.6 56.4 44.4 57.5 45.2 57.1 45.5 57.1 45.7 57.5 45.8 57.7 46.1 58.2 46 58.5 46 58.8 45.8 59.1 46.4 59.3 46.7 59.6 47.4 60.2 48.4 60.3 49.2 60.3 49.9 60.3 51.1 60.3 51.9 59.9 52.5 59.6 53.7 59.3 54 59.1 54.3 59 55.1 59.3 55.3 59.1 55.6 59 55.5 58.5 55.3 58.2 55.1 57.9 54.6 57.9 54.3 57.9 54 58.1 53.7 57.9 53.2 57.8 52.8 57.6 52.5 57.5 51.9 57.6 51.3 57.8 49.6 57.8 48.8 57.5 48.1 57.2 47.6 56.3 47.5 55.8 47.2 55.4 46.6 55.9 46.1 55.8 45.8 55.7 45.2 55.2 44.5 55 43.6 54.8 43.7 55.2 43.9 55.3 43.9 55.6 44.4 56.1 44.5 56.2L44.5 56.2 44.5 56.2 44.5 56.2ZM50.8 63.8C50.7 63.1 50.7 62.8 49.9 62.8 49.5 62.8 48.7 62.8 48.7 63.8 48.7 64.3 49 64.9 49.2 65 49.3 65.2 49.9 66 50.4 66.1 50.7 66.1 51.4 66 51.9 66 52.5 66 52.7 65.1 52.1 64.9 51.5 64.7 51 64.6 50.9 63.8L50.8 63.8 50.8 63.8 50.8 63.8ZM56.9 61C56.9 60.8 56.7 60.3 56.3 60.3 55.8 60.3 54 60.5 53.2 60.8 52.6 61.1 52.3 61.6 52.2 61.7 52 62 52.2 62.3 52.7 62 53.1 61.9 54.9 61.9 55.1 61.9 55.2 62 55.7 62.5 55.8 62.8 55.8 62.8 56.4 63.8 56.1 64.2 55.8 64.5 55.7 64.9 55.7 65.4 55.7 65.8 56.1 66.1 56.7 65.8 57.3 65.7 57 65.2 57.8 64.9 58.1 64.7 57.9 63.4 57.9 63.1 57.9 62.8 57.6 62 57.5 61.7 57.3 61.4 56.9 61.3 56.9 61L56.9 61 56.9 61 56.9 61ZM54 35.3C54.4 35.3 54.9 35.1 55 34.9 55.2 34.8 55.6 34.3 56.4 34.4 57.3 34.6 58.5 35.2 58.6 35.4 58.9 35.5 59.4 35.8 59.4 36.4 59.4 37 58.8 37 58.3 37.3 58 37.7 57.7 37.8 57.3 37.8 56.8 37.8 56.1 37.3 55.6 37.5 55.2 37.7 54.7 38.1 55.2 38.4 55.5 38.7 56.1 38.6 56.5 38.6 57 38.6 56.8 39.6 56.2 39.6 55.6 39.8 55.5 40.5 56 40.5 56.7 40.4 56.8 40.8 56.6 41.2 56.2 41.3 55.6 41.4 55.5 41.6 55.2 41.8 55.7 42.2 56.1 42.2 56.4 42.2 57.1 41.9 57.3 41.8 57.7 41.4 58.2 41.6 58.7 41.9 59 42.2 59.9 41.3 60.8 41.2 61.7 41 62.4 40.7 62.7 40.7 63 40.7 63 41.6 63.4 41.6 63.5 41.8 64.5 41.8 65.1 41.8 65.8 41.9 66.7 42.3 67.1 42.2 67.7 42 67.3 41.4 67.1 41.2 67.1 41 67.1 40.7 67 40.4 66.8 40.2 66.4 39.9 66.4 39.4 66.4 39.2 66.8 37.9 65.8 37.7 64.7 37.3 64.3 37.5 64.3 37.2 64.3 37 64.4 36.4 64.1 36.4 63.8 36.4 61.2 36.3 60.9 36.1 60.2 36 59.3 34.4 58.2 34.2 57.2 33.9 56.4 33.5 55.5 34 54.6 34.4 54.2 34.4 53.7 34.4 53.4 34.8 53.7 35.7 54 35.3L54 35.3 54 35.3 54 35.3ZM32.7 38.6C33.2 38.4 33.6 37.6 33.6 37.2 33.6 36.8 33.5 36.6 33 36.4 32.6 36.3 32.6 36.7 32.8 37 32.9 37.3 33 37.9 32 38.1 31.1 38.1 31.1 37.3 31.2 36.9 31.5 36.1 31.1 36.1 30.3 36.7 29.9 37.3 30 37.9 30.3 38.4 30.6 38.6 32 38.8 32.8 38.6L32.7 38.6 32.7 38.6 32.7 38.6ZM71.8 48.7C71.5 48.8 71.1 49 70.8 48.8 70.2 48.5 70 47.8 69.8 47.4 69.7 47.2 68.6 45.6 68.3 45.5 67.9 45.3 66.8 44.1 65.8 43.5 64.6 42.9 63.7 43 62.3 43.2 61 43.4 58.9 44.7 58.4 44.9 58.1 44.9 57.6 44.4 57.2 44.1 56.7 43.8 56.4 43.9 56 43.8 55.5 43.7 55.4 43.5 54.8 43.2 54.2 42.9 53.9 43 53.4 43.2 53 43.3 53.4 43.8 54 43.9 54.6 44.1 55.4 44.1 55.7 44.6 56 44.9 55.5 45.2 55.1 45.2 54.6 45.2 54.3 44.9 54 44.7 53.7 44.6 53.2 45.2 53.4 45.5 53.6 45.8 54 45.8 54.3 45.9 54.8 46.1 55.9 45.8 56.1 45.9 56.4 46.1 56.3 46.5 56.1 46.9 56 47.2 56.3 47.8 56.6 47.9 56.9 48.1 54.5 47.9 54.3 48.2 54.2 49 55.1 49 55.5 49 56.1 48.8 55.8 49 57.8 48.8 60.5 48.7 62.1 49.9 62.9 50.3 63.8 50.8 64.4 52.6 64.6 53.8 64.6 55.2 64 55.6 63.8 56.7 63.7 57.7 64.4 60.5 64.6 61 64.7 61.6 65.5 61.2 65.5 61 65.5 60.6 65.5 60.3 65.8 60 66.1 59.7 66.2 59.7 65.9 59.1 65.6 58.5 65.5 57.9 65.5 57 65.5 55.9 65.8 56.1 66.1 54.3 66.4 52.4 65.5 50.7 65 49.6 64.6 48.5 62.3 47.6 61.9 47.3 61.4 47 61 46.7 60.8 46.4 60.6 46.1 60.2 46.3 59.9 45.9 59.6 45.6 60.4 45.3 60.6 45.2 61.2 44.9 61.9 44.3 62 44.4 62.5 44.7 61.9 45.3 62.1 45.5 62.6 45.6 63.1 45 63.4 45.2 63.7 45.5 64.3 45.9 63.5 46.1 62.7 46.4 63.7 46.7 64 46.7 64.1 46.7 65 46.1 65.3 46.4 65.6 46.7 65 47.3 65.6 47.5 65.8 47.5 66 47.6 66.7 47.6 67.1 47.8 67 48.2 67.3 48.2 67.6 48.2 68.3 48.1 68.9 48.4 69.7 48.7 70.6 49.6 70.9 49.9 71.3 50.4 72 49.8 72.1 49.4 72.3 49.1 72 48.7 71.8 48.7L71.8 48.7 71.8 48.7 71.8 48.7ZM66.6 11.4C59.3 4.1 49.5 0 39.1 0 28.8 0 19 4.1 11.7 11.4 4.3 18.8 0.3 28.6 0.3 39 0.3 49.4 4.3 59.2 11.7 66.6 19 74 28.8 78 39.1 78 49.5 78 59.2 74 66.6 66.6 73.9 59.2 78 49.4 78 39 78 28.6 73.9 18.8 66.6 11.4L66.6 11.4 66.6 11.4 66.6 11.4ZM70 19.6L70.2 19.5C73.1 24.1 74.9 29.2 75.6 34.7 75 34.8 74 34.8 73.9 34.2 73.8 33.6 73.3 31.3 73.2 30.8 73 30.4 72.6 29.5 72.4 29 72.2 28.7 71.9 27.5 71.8 27.1 71.6 26.6 70.7 24.3 70.4 23.7 70.1 23.1 70 22.3 70.1 22.1 70 21.6 68.9 19.9 70 19.6L70 19.6 70 19.6 70 19.6ZM60.8 9.3C62.3 10.4 63.7 11.7 65 13 66.1 14.1 67.1 15.2 68 16.3 66.8 16 65 15.5 64.6 15.7 64.3 15.9 64 16.5 64.3 16.8 64.6 17.1 66.4 17.4 66.8 17.7 67.3 18 68.2 18.3 68 18.9 67.9 19.4 67.6 19.8 68 20.1 68.5 20.4 69.2 20.4 69.1 21.5 68.9 22.4 69.2 22.8 69.7 23.4 70.2 24 70.2 25 70.5 25.4 70.6 25.9 69.2 25.6 69.1 25.1 68.8 24.5 68.2 23 67.8 22.5 67.3 22.2 66.7 22.4 66.8 22.9 66.8 23.3 67.6 25 68.1 25.4 68.5 26 69.7 26.4 70 27.1 70.3 27.7 70.9 28.4 71.2 28.9 71.4 29.3 72.3 30.1 72.4 31.8 72.6 32.8 73 33.9 73.2 34.3 73.3 34.8 72.4 35 72.1 34.6 71.7 34.2 71.4 33.7 71.4 33 71.2 32.2 70.8 30.1 70 29 69.1 27.7 68.8 27.2 68.3 26.9 67.9 26.6 66.8 25.4 66.4 24.9 65.9 24.5 65.3 23.3 65 22.5 64.7 21.8 64 21.9 63.9 22.7 63.7 23.4 63.7 23.9 64.6 24.9 65.4 26 65.7 26.8 66.4 26.9 67.2 27.1 67.5 26.9 68.1 27.8 68.7 28.8 69.9 31 70 31.6 70.2 32.2 68.7 32.1 68.5 31.3 68.2 30.7 67.8 29.2 67.5 28.8 67.2 28.3 67 27.8 66.6 28.2 66.1 28.4 66.7 29.3 66.8 29.7 67 30.1 66.2 30.4 65.8 29.9 65.3 29.5 65.2 28.6 64.9 28.1 64.7 27.8 64.3 27.2 64 27.3 63.5 27.7 63.9 28.6 64 29.2 64.1 29.8 63.7 30.1 63.2 29.8 62.6 29.3 62.8 28.3 62.3 27.7 62 27.2 61.4 26.9 61.2 26.3 61.1 25.9 61.2 25.1 61.6 24.8 62.2 24.2 61.9 23.8 61.9 23.4 61.9 23.1 61.6 22.8 61.6 22.4 61.6 21.8 62 21.8 62.2 21.5 62.3 21.2 62.3 20.5 62.2 20.3 62 20 61.7 19.5 62.3 19.4 62.9 19.2 63.1 19.4 63.5 19.5 64 19.6 64.8 20.3 65.2 20.3 65.5 20.3 66.5 20.3 66.4 19.4 66.2 19 65.5 18.6 65.2 18.7 64.9 18.9 64.3 18.9 64 18.6 63.5 18.3 62.3 17.1 62.1 16.9 62.2 16.8 62.8 15.4 63.4 15.1 64 15 64.8 14.8 64.6 14.2 64.4 13.6 63.5 13.6 63.2 13.1 62.9 12.6 62.3 12.1 61.9 12.4 61.4 12.6 60.8 12.6 60.5 12.8 60.2 13 59.6 13.4 59.4 14 59.3 14.6 57.9 17 57.9 17.8 57.8 18.1 56.9 18.9 57 19.3 57.2 19.6 57.5 19.5 57.8 19.6 58.1 19.8 57.9 20.4 57.5 20.8 57 21.3 57 21.9 56.9 22.1 56.7 22.3 56.1 22.3 56 22.7 55.8 23.4 55.4 23.7 54.9 24 54.3 24 53.7 23.7 54.2 23.2 54.6 22.8 54.5 22.3 54.8 22.1 55.1 21.7 55.4 21.4 55.2 21.1 55.1 20.8 54.5 20.4 54.8 20.1 55.1 19.7 55.5 19 55.8 18.2 56 17.7 57.2 14.8 57.5 14.2 57.8 13.5 57.8 12.9 58.1 12.6 58.3 12.2 59.7 10.3 60.8 9.3L60.8 9.3 60.8 9.3 60.8 9.3ZM59.9 8.6C58.5 9.4 56.5 10.8 56.1 11.1 55.7 11.6 55.2 13.9 55.1 14.2 54.9 14.3 54.8 14.8 54.8 15.2 54.8 15.7 54.9 16 54.5 17 54 18.1 53.7 18.7 53.5 19.6 53.3 20.5 53.9 21 53.4 21.7 52.9 22.5 52.7 23 52.5 23.4 52.5 23.8 52.1 24.3 51.9 24.7 51.7 25.2 50.5 25.7 50.8 24.9 51.1 24 51.9 21.7 52.3 19.2 52.8 16.6 52.8 15.2 53.7 12.5 54.2 11 56.8 8.9 58.4 7.6 58.9 8 59.4 8.3 59.9 8.6L59.9 8.6 59.9 8.6 59.9 8.6ZM2.5 41.5C2.5 40.6 2.4 39.8 2.4 39 2.4 35.1 3 31.3 4.2 27.6 4.7 27.9 5.5 28.3 5.7 27.8 5.9 27.4 6 27.2 6.8 27 7.4 27 8.8 26.8 9.2 26.8 9.5 27 10.1 27.4 10.4 27 10.7 26.5 11.6 26.7 11.8 27.6 11.8 27.9 11 28.5 11.9 29.3 12.4 29.7 13.1 29.7 13.3 30.5 13.6 31.6 14 31.6 14.3 32.5 14.5 33.1 15.5 33.1 15.7 32.3 15.8 31.7 16.1 30.5 16.4 30.5 16.8 30.5 18.1 30.9 18.2 31.4 18.4 31.8 17.6 32.2 17.5 32.6 17.5 33.1 16.9 34 17.1 34.6 17.2 35.2 16.6 35.2 16.2 35 15.8 34.9 15.2 34.7 14 34.4 13 34.2 11.2 35.1 10.7 35.3 10.3 35.5 9.8 35.3 9.8 34.9 9.8 34.4 9.8 34 9.5 33.8 9.4 33.7 8 33.8 8.6 32.7 9.2 31.4 7.8 31.1 7.6 31.8 7.1 33.1 6.8 33.1 6.5 32.9 5.9 32.6 6.2 32 6.3 31.4 6.9 29.4 5.6 29.9 5.3 30.5 5.1 30.8 5.1 32.6 4.8 33.1 4.5 33.6 5.1 34.1 5.1 34.7 5 35.5 4.4 37.7 4.4 38 4.2 38.6 5.7 38.6 5.7 37.9 5.7 37.5 6.2 36.2 6.8 36.4 7.1 36.4 7.2 35.6 7.4 35.2 7.4 34.9 7.8 34.6 8.3 34.7 8.6 34.7 8.5 35.3 8.5 36 8.3 36.7 8.3 37.5 8.2 37.7 8 38.1 6.5 39.3 6 39.6 5.7 39.7 3.6 40.6 3.3 40.8 3.3 40.9 2.7 41.1 2.5 41.5L2.5 41.5 2.5 41.5 2.5 41.5ZM34.4 75.5C34.4 75 34.7 73.8 35.5 73.8 36.5 73.8 37.2 74.9 37.7 75.8 36.6 75.8 35.5 75.7 34.4 75.5L34.4 75.5 34.4 75.5 34.4 75.5ZM57.9 70.7C57.5 69.6 57.8 68 58.1 67.8 58.5 67.5 60.3 66.4 60.5 66.3 61.2 65.6 61.7 64.9 61.8 64.6 62 64.3 62 63.7 62.1 63.4 62.3 63.1 63.5 63.1 63.4 63.7 63.3 64.1 64.4 65.1 64.7 65.4 62.6 67.4 60.3 69.2 57.9 70.7L57.9 70.7 57.9 70.7 57.9 70.7ZM66.4 63.6C66.2 63 65 62.1 63.7 62 62.8 62.1 63.2 61.1 63.2 60.8 63.2 60.5 62.5 60.5 62.3 59.9 62.3 59.6 62.1 59.1 61.9 58.8 61.7 58.6 61.1 58.4 61.1 58 61.1 57.7 61.5 57.7 61.5 57.3 61.7 56.8 61.5 56.2 61.4 55.8 61.4 55.3 61.1 53.6 61.5 53.5 61.9 53.3 62 53.8 62.1 54.2 62.3 54.7 63.1 54.9 63.1 54.6 63.1 54.2 63.1 53.5 62.9 52.9 62.8 52.3 61.6 51.7 61.2 51.6 60.9 51.4 60.8 51.4 60.5 51.1 60.2 50.9 57.9 50.9 57 50.8 56 50.5 55.2 50 54.8 49.9 54.3 49.7 54.5 49.6 53.9 50 53.4 50.8 53.7 50.8 54.3 51.2 54.9 51.8 54.8 52.6 54.8 53.1 54.8 53.5 55.5 53.7 55.8 54 56.1 54.3 56.3 54.7 56.7 54.9 57.2 55 57.5 55 57.9 55.5 58.4 55.9 58.2 56.6 58.5 57.2 59 57.9 59.6 57.6 59.8 58.2 59.9 58.5 59.6 59 59.6 59.3 59.6 59.6 59.9 60.8 59.9 61.9 59.9 62.8 59 63.7 59 64.3 59 64.9 59.1 64.7 59.4 65.4 59.7 66 58.2 66.1 58.1 66.3 57.9 66.5 57 67.3 56.9 67.5 56.6 67.6 55.5 69 55.5 69.4 55.5 70.5 51.1 70.6 51.1 73.1 51.1 73.2 51.2 73.5 51.3 73.8 50.3 74.1 49.3 74.4 48.4 74.7 47.5 74.3 45.5 73.9 45 74.1 43.3 73.9 39.4 74.3 38.8 74.3 38.3 74.3 37.6 73.6 37.3 73.4 36.7 73.1 36.4 72.8 35.3 72.7 34.4 72.5 33.8 72.2 33.8 72.1 33.8 71.9 33.9 71.5 34.1 71.1 34.3 70.8 33.9 70.4 33.8 70.2 33.7 70.1 33.5 69 33.5 68.7 33.5 68.1 34 67.2 34.3 66.6 34.6 66 34.9 66 35.2 65.7 35.5 65.4 36.6 65.2 36.4 64.8 36.2 64.5 35.9 64 35.5 63.7 35 63.4 34.3 63.7 33.5 64 32.9 64.2 31.9 65.2 31.7 65.5 31.5 65.8 31.2 66.7 30.9 67.3 30.8 68 30.9 68.9 31.4 69.9 31.5 70.2 31.5 70.8 31.7 71.3 31.8 71.7 32.3 72 32.6 72.4 32.9 72.6 32.9 73.1 32.9 73.4 32.9 73.6 32.7 74.7 32.8 75.3 31.4 75.1 30.1 74.8 28.8 74.4 28.9 74 28.6 73.2 28.1 72.8 27.3 72.2 26.2 71.9 24.9 71.3 23.5 70.6 21.9 70 21.6 69.9 20.7 69.7 20.1 70.1 19.9 70.4 19.1 69.9 18.3 69.3 17.5 68.8 17.6 68.4 17.6 68 17.6 67.6 17.6 66.9 16.6 66.4 16.1 66.1 14.5 65.2 15.2 64.4 14.6 64 14.1 63.6 13.7 64.9 13.7 65.5 13.5 65.4 13.4 65.2 13.2 65.1 9.5 61.3 6.6 56.9 4.8 52.2 5.3 52.3 5.5 51.6 5.7 51 6 50.4 4.4 49.9 5.2 48.8 5.4 48.2 4.2 47.8 4.2 47.5 4.2 47.2 4.7 46.5 5.3 46.1 5.7 45.6 7.1 45.2 7.8 45 8.3 45 9.7 44.7 10.7 44.7 11 44.7 11.9 44.4 12.2 44.1 12.5 43.8 12.8 44.1 13.3 43.8 13.7 43.5 14.6 42.8 15.2 42.2 15.8 41.7 14.9 41 14.5 40.8 14 40.7 12.1 40.7 10.4 41.4 9.8 41.7 7.8 42.9 7.2 43.7 6.5 44.6 5 45.5 4.8 45.7 4.7 46 3.9 46.7 3.9 46.7 3.9 46.6 3.6 45.2 3.6 45.1 3.5 44.3 3.3 43.7 4.1 43.1 4.8 42.5 6 41.9 6.2 41.7 6.5 41.6 8 40.2 8.5 40.1 9.8 39.8 11.9 39.3 14.2 39.6 15.2 39.8 15.2 39.8 14.9 39 14.6 38.3 14 37.9 13.1 37.9 12.5 37.9 11.3 37.7 10.7 37.7 10.1 37.7 10.5 36.8 11.2 36.4 11.8 36.1 13.6 36.1 14.5 36.6 15.4 37 15.7 37.3 16.8 37 17.5 36.9 18.9 36.3 19 34.9 19.2 33.9 20.5 33.4 21.2 33.9 21.7 34.3 21.7 35.2 21.6 35.4 21.4 35.5 20.8 35.5 20.4 35.7 20.1 35.7 19.8 36 19.9 36.3 20.1 36.9 19.6 36.9 19.3 37.2 18.8 37.3 18.5 38.1 18.4 38.1 18.2 38.3 17.8 37.9 17.5 37.9 17.2 37.9 16.9 38.7 16.9 38.7 16.9 38.7 16.7 39.6 17.8 39.2 18.1 39 18.7 38.9 18.8 39 19.1 39.3 19.6 39.3 20.1 39 20.3 38.7 20.8 38.7 21.1 39.2 21.3 39.4 22 39.6 22.3 39.3 22.6 39 23.5 39.4 23.8 39.3 24.4 39.2 24.3 37.4 24.3 36.8 24.3 36.1 24.9 35.1 24.9 34.6 24.7 34 24.7 33.3 24.1 33.3 23.7 33.3 23.4 33.1 22.8 32.4 22.5 31.7 22.1 31.6 21.5 31.3 20.7 31 20.2 29.8 19.9 29.1 19.5 28.5 18.8 28.4 18.4 28.1 18 28 17.5 27.3 17.1 26.9 16.6 26.3 16.3 26.4 15.7 26 15.2 25.7 14.9 25.2 15.2 24.7 15.4 24.3 15.7 23.7 16.2 23.2 16.6 22.8 17.4 21.4 17.5 20.8 17.7 20.2 16.8 19.8 16.4 20.2 16.1 20.5 15.7 21.4 15.2 22.2 14.8 23 14.5 23.8 13.7 24.6 12.8 25.5 12.2 24.5 12.8 23.7 13.4 23.1 14.5 20.7 15.7 18.7 16.1 17.8 15.1 17 14.6 17.7 14.2 18.2 13.4 19.9 13 20.5 12.7 21.1 11.5 24.1 11.2 24.6 10.9 25.1 9.8 25.5 9.5 25.4 9.4 25.2 9.4 24.7 9.5 24.3 9.7 24 11 21.4 11.5 20.8 11.9 20.2 13.7 17.2 14.2 15.8 14.6 14.6 13.6 14.6 13.3 15.2 13 15.8 12.4 16.4 12.1 17 11.8 17.7 10.3 20.2 9.7 21.3 9 22.3 7.7 25.1 7.6 25.4 7.4 26 5.9 26.1 6.2 25.2 6.6 23.8 8.1 21.1 8.7 20.4 9.4 19.5 9.1 18.6 8.7 18.5 10 16.5 11.5 14.7 13.2 13 13.6 12.6 14 12.1 14.5 11.7 14.9 11.8 15.2 11.9 15.4 12 15.7 12.9 16.4 13.4 17.2 13.1 18 12.8 18.5 12.9 18.9 13.7 19.2 14.4 19.6 14.9 19.5 15.7 19.3 17 18.1 21.2 18.9 24.3 19.3 25.8 19.2 26.4 20.8 28.5 21.7 29.6 23.4 31.1 23.7 31.4 23.8 31.7 24 32.3 24.3 32.2 24.6 32 24.3 30.8 23.7 30 23.1 29.5 20.2 27.5 19.9 24.7 19.6 22.1 20.1 20.4 20.4 19.6 20.7 18.8 20.7 17.7 20.7 17.2 20.7 17.2 20.7 16.3 21.1 16.4 21.6 16.6 21.7 17.9 21.7 18.6 21.7 19 21.9 20.1 21.9 20.1 21.9 20.1 22.3 21.1 22.3 21.4 22.3 21.7 21.9 22.8 22 23.2 22.2 23.7 22.8 24 23.1 24.5 23.4 24.7 22.9 25.4 23.2 25.8 23.5 26.3 24.4 27.6 25.1 27.8 25.6 28 27.3 28.5 27.6 28.2 27.9 28 28.7 27.2 27.5 26.7 26.2 26.3 24.4 25.7 24 24 23.5 22.5 23.7 19 21.6 14.8 19.5 10.5 18.1 11 17.3 10.7 17.1 10.6 16.6 10.5 16.1 10.3 17 9.6 18 8.9 19 8.2 19.5 8.8 20 9.3 20.1 9.3 20.3 9.3 20.7 8.4 21 8.4 21.6 8.5 21.7 9.6 21.9 10 22 10.5 22.5 11 22.8 11.3 23.2 11.7 24.1 15.1 24.3 16 24.4 16.9 25.3 23.2 25.8 23.8 26.5 24.9 27.3 24.9 26.9 23.2 26.2 21.3 26.1 17 26.4 15.5 26.7 14 26.1 11.3 25.8 10.8 25.5 10.4 25.6 9.5 25.9 9.3 26.1 9.1 27.1 9.9 27.3 10.5 27.4 11.1 27.6 15.1 27.7 15.7 27.9 16.3 28.4 16.6 28.5 17 28.8 17.6 28.5 18.2 28.8 18.7 28.9 19.1 30 21 30.4 21.4 30.9 22 31.5 22.1 31.7 21.7 31.8 21.2 30 19.5 29.5 17.2 29.2 15.8 28.6 14.7 28.6 13.8 28.3 13.4 28.5 13.1 28.3 12.8 28.2 12.5 28.3 10.2 28 9.7 27.7 9.1 25.9 7.8 25.6 7.9 24.7 8.3 23.7 7.3 23.2 7 23.1 6.8 22.7 6.5 22.3 6.3 23.5 5.6 24.7 5.1 26 4.6 25.9 5.2 26 5.8 26.2 6.2 26.5 7 26.8 8.1 27.4 7 27.8 6.2 27.9 4.9 28 3.9 29.2 3.5 30.4 3.2 31.6 3 31.7 3.2 31.9 3.5 31.9 3.5 32.3 3.7 33 4.9 33.6 5 34.4 5.2 35.3 5.3 35.9 5.3 36.9 5.5 37.7 6.5 37.8 7.3 38.6 9.3 37.1 11.7 37.1 11.7 37.1 11.7 36.8 12.3 36.9 13.7 37.1 15 36.9 15.8 37.5 15.8 38.1 15.8 38.1 13.2 38.6 12.3 38.9 11.4 39 10.5 39 10.3 39 9.6 39.1 6.7 38.9 6.3 38.7 5.8 38.1 4.9 37.1 4.8 35.9 4.6 34.4 4.3 34.5 3.5 34.5 3.2 34.8 3 35.1 2.9 36 2.8 37.1 2.8 38.1 2.8L38.7 2.8C39.2 2.9 39.6 3.5 39.8 4.4 39.9 5.6 39.8 8.4 39.8 8.8 39.8 9.6 40.7 8.7 40.8 8.8 41.3 9.3 40.4 10.8 40.2 12.3 40.1 13.8 39.5 15 39.9 15.2 40.5 15.2 41.3 12.7 42.2 10.8 43.1 8.7 42.9 9 42.9 8.7 42.9 8.5 42.8 7.6 43.3 7.3 43.7 7 45.4 6.8 46.4 6.7 47.2 6.7 47.6 6.2 47.5 5.9 47.3 5.6 45.9 5.5 45.6 5.5 45.2 5.5 44.2 5.8 43.8 5.5 43.7 5.4 44 3.5 44.1 2.5 48.5 3.1 52.7 4.5 56.5 6.5 55.6 7 54.5 7.4 54.4 7.6 53.5 8.3 52.6 8.3 51.9 8.3 50.9 8.3 49.4 7.9 48.5 9.7 47.8 11.5 47 14.4 46.9 16.2 46.7 17.9 45.8 19.7 46.3 19.8 46.7 20 47.5 18.6 47.8 17.4 48.1 16.7 48.4 15.6 48.7 15.2 48.8 14.7 49.7 13.9 49.7 15 49.7 16 49 17.1 48.5 18.5 48.1 19.8 48.1 20.6 47.5 21.1 46.6 22 46.4 22.7 47 22.6 47.6 22.4 48.4 22.6 48.1 23 47.8 23.6 47.2 23.9 47.5 24.2 47.8 24.6 48.7 24.4 48.8 23.8 49 23.2 49 22 49.3 21.7 49.6 21.2 50 21.7 49.9 22.3 49.6 23.2 50.5 22.7 50.2 23.8 50.2 24.1 49.4 24.8 49.5 25.1 49.6 25.5 50.5 26.1 48.5 26.2 47.9 26.2 45.3 25.5 44.6 25 43.7 24.6 42.9 23.6 42.2 23.3 41.4 23 39.8 22.6 39.5 22.4 39 22.1 38.7 21.7 38.7 21.3 38.7 20.9 37.8 20 37.2 19.1 36.6 18.2 35.7 17 36 15 36.3 12.9 36.3 9.6 35.6 8.5 34.6 7.6 32.4 6.1 31.9 5.2 31.5 4.3 30.3 3.7 29.5 3.7 29.1 3.7 29.3 7.1 29.3 8.1 29.4 9 29.7 9.6 29.9 9.7 30.3 9.9 30.7 10.6 30.7 11.4 30.6 12.1 29.8 11.8 29.9 13 30.1 13.8 30.6 13.6 30.9 13.6 31.2 13.6 31.3 15 31.2 15.2 30.9 15.3 30.6 15.5 30.7 15.9 30.9 16.4 31 17.6 31.5 17.6 32 17.6 32.3 16.8 32.3 16.4 32.3 15.9 32.4 11.5 32.6 10.8 32.7 10 32.2 9.2 31.8 8.6 31.3 8 30.1 7.3 30.3 6.5 30.4 5.7 30.6 4.8 30.9 5 31.3 5.3 31.3 6.2 31.2 6.6 31.3 6.8 34 8.8 34.7 9.5 35.1 10.1 35.1 13.3 35.1 13.8 35 14.4 34.3 14.8 34.2 14.4 34.1 13.5 34.7 12.1 33.8 12.1 33.3 12.1 33 13 33.2 14.4 33.3 15.8 33.6 18.6 33.9 18.9 34.2 19.2 34.7 19.4 34.8 19.8 35 20.3 35.3 21.1 35.9 21.2 36.6 21.4 37.2 21.5 36.8 21.8 36 22.3 35 22.7 34.5 22.7 33.2 22.9 32.1 23.9 31.3 24.4 30.4 25 29.8 26.4 29.4 27.4 29.2 27.6 29.1 28.6 28.5 29.2 27.7 30 26.8 30.5 26.3 30.6 25.9 30.9 25.3 31.5 26.2 31.4 27.1 31.1 28.8 30.3 28.9 31.2 29.1 32 27.6 32 27 32.1 26.5 32.3 25.3 32.9 25.9 33.5 26.2 34 27.4 32.9 28.2 32.9 29.1 32.9 30.1 33.4 30.9 33.5 31.6 33.6 33.1 33.6 33.7 33.5 34.3 33.4 36.5 31.7 37.7 31.8 38.6 32 39.5 32.7 40.2 33.1 41.3 33.5 42.2 34.1 44.5 34.1 46.7 34.1 48.2 33.2 48.4 33.8 48.5 34.4 48.1 34.4 48.1 35 48.1 35.5 48.2 35.9 47.9 36.2 47.6 36.6 46.8 36.2 46.5 36 46.3 35.8 45.9 35.3 45.6 35.3 45.3 35.3 44.2 35.3 44.3 35.6 44.4 35.9 44.7 36.1 45.5 36.1 46 36.1 47.2 37.4 47.5 37.6 47.8 37.7 48.7 38.5 48.5 38.8 48.4 39.1 48.2 39.1 47.9 38.9 47.4 38.8 47.4 38.4 47 38.5 46.6 38.5 46.1 39.3 45.6 39.4 45 39.7 43.8 39.7 43.2 39.5 42.5 39.3 41.8 38.8 41.4 38.4 40.8 37.7 40.5 36.8 39.9 35.9 39.3 34.9 38.4 33.8 37.9 34 37.5 34 37.2 35.1 37.3 36.1 37.5 37.1 37.9 37.7 37.8 38.2 37.5 38.5 36.9 39.1 36.9 39.9 36.7 40.9 37.5 40.5 37.5 40.9 37.5 41.4 37.3 42.1 37 42 36.7 41.8 36 41.7 36 42.3 36 42.9 36.3 42.8 36.7 42.9 37.2 43 37 43.7 37.2 43.9 37.3 44.3 37.3 44.6 37.8 44.7 38.4 45 38.5 44.3 39.2 44.4 39.9 44.6 39.9 44.7 40.4 44.9 41 45 41.7 44.9 41.8 44.6 42.2 44.3 42 43.5 41.7 43.2 41.6 42.9 41.3 42.1 41.7 42.1 42.3 42 42.5 42.6 42.6 42.9 42.8 43.2 43.1 43.8 43.4 44.1 43.5 44.4 44 44.4 44.3 44.9 44.7 45.2 44.8 45.5 44.9 45.8 45 46.3 45.9 46.4 46.3 46.7 46.4 47.2 46.4 47.8 46.9 48.4 47.3 49 47.8 49.4 47.3 49.9 46.9 50.5 45.6 49.1 44.9 48.2 44.1 47.4 43.3 46.3 42.6 46.3 42 46.3 42 46.9 42.3 48.1 42.6 49.3 42.8 49.9 42.9 50 43.1 50 43.4 49.9 43.5 50 43.7 50.2 44.3 51.4 45 51.9 45.8 52.3 46.7 52.8 47.5 52.5 48.2 52.2 47.9 51.6 48.1 51.4 48.2 51.3 49.1 51 49.6 51 49.9 51 50 49.6 50 49.3 50 49 49.6 48.5 49.7 48.2 49.7 48 50.2 47.5 50.2 47.3 50.2 47.2 50.2 46.1 50.5 45.5 50.8 44.7 51.3 43.4 51.1 42.2 50.9 41.6 51 41 51.3 40.1 51.5 39.1 51.7 38.8 51.5 38.1 51.4 37.3 51.3 36.8 51.3 36.4 51.2 36 50.6 35.5 50.8 34.8 50.9 34.4 51.3 33.4 51.3 32.8 51.2 31.4 51.3 31 51 30.4 50.6 29.6 50 28.9 49.7 28.7 49 28.5 49.1 28.1 48.8 27.8 48.5 27.6 48.3 27.2 48.7 27 49.1 26.9 49.4 27 50 26.9 50.6 26.7 50.6 26 51 26 51.4 26 52.5 26.1 52.3 26.4 52.1 26.7 52 27.6 53.2 26.9 53.7 26.7 53.8 26.4 54.2 26.7 54.7 27 54.4 27.3 54.1 27.6 53.8 27.8 52.9 28.1 52.9 28.2 52.9 28.4 52.7 28.9 53.2 28.9 53.8 28.9 54.4 28.4 54.6 28.2 54.7 28.1 54.9 27.6 55.2 27.6 55.6 27.6 55.5 28.1 56.2 27.9 57 27.8 57.3 27.4 57.6 26.1 57.9 24.7 58.3 22 58.5 20.5 58.6 18.8 58.8 17.8 58.8 17.5 58.8 17 59.1 16.5 59.2 16.4 59.4 16.2 60 15 60.3 14.7 60.6 14.4 61.3 14.6 61 15.3 60.8 16.1 60.1 16.4 60.1 17 60 17.5 60.5 18.2 60.3 18.6 60.1 19.1 59.2 19.3 59.4 19.9 59.5 20.6 59.7 22.3 59.7 22.8 59.7 23.2 58.9 23.3 59.1 23.9 59.2 24.6 59.4 25 59.1 25.5 58.8 25.9 58.5 26.8 58.3 27.1 58.3 27.4 58.2 29.1 57.9 29.2 57.3 29.6 56.5 29.2 56.1 29.6 55.8 29.9 55.6 30.5 55.2 30.5 54.7 30.5 54.4 30.6 54.1 30.9 53.6 31.1 53.5 32 53.9 31.7 54.5 31.4 55.6 30.6 56.1 30.6 56.5 30.6 57 30.6 57.2 30.5 57.6 30.3 58.3 30 58.8 29.7 59.2 29.4 59.4 28.6 59.4 28.5 59.4 28.3 60.3 28.5 60.3 28.8 60.3 29.1 60.6 30.3 60.4 30.6 60.3 31.1 59.7 31.5 59.7 31.5 59.7 31.5 58.5 32 58.6 32.5 58.6 32.9 59.7 32.6 60.1 32.5 60.7 32.3 61.5 31.7 61.6 31.8 61.8 32 61 32.9 61.3 33.8 61.5 34.7 63.1 34.9 63.8 34.6 64.3 34.4 64.4 34.1 64.6 34 64.8 33.8 65.7 33.8 66.1 34 66.6 34.1 67.2 34.2 67.2 34.6 67.2 34.9 66.5 35 66.6 35.5 66.7 35.9 67.1 35.9 67.5 35.8 68.1 35.8 68.7 35.9 69.3 36.1 69.9 36.2 72 36.8 72.9 37.1 73.6 37.3 74 38 74 39.3 74 40.5 73.8 41.8 73.6 41.8 72.9 41.8 72.9 40.3 72.5 39.4 72 38.5 71 37.9 70.8 38 70.7 38.4 70.4 38.6 71 39.3 71.6 39.9 71.9 40.3 71.9 40.8 71.9 41.2 71.9 41.7 72.1 41.8 72 42 72.6 42.6 72.5 42.9 72.3 43.5 71.1 43.3 70.8 43 70.5 42.9 70.7 40.6 70.4 40.2 70.2 39.7 69.3 38 68.7 37.7 68 37.5 67.2 37.7 67.6 38.5 67.8 39.3 68 40.2 68.4 40.5 68.9 40.8 69.3 41.4 69.3 41.4L69.2 41.9C69.2 41.9 69.2 43 69.3 43.4 69.5 43.8 70 44 70.1 44.3 70.1 44.6 70.6 45.8 71 46.4 71.5 47 71.3 47.3 71.9 47.3 72.5 47.3 72.7 46.9 72.8 46.3 72.8 45.9 74.2 45.7 75.2 45.7 74 52.4 70.9 58.5 66.4 63.6L66.4 63.6 66.4 63.6 66.4 63.6ZM41.9 19C42.4 18.1 42.7 17.5 43.3 17.5 43.7 17.5 43.9 18.1 43.7 19 43.7 19.9 44.4 19.3 44.8 18.7 45.3 18.1 45.4 16.3 45.5 15.2 45.6 14.3 45.8 13.5 45.8 12.6 46 11.9 46.2 10.8 45.7 10.8 45.3 10.8 44.9 11 44.9 10.7 45 10.2 46.5 8.9 46.9 8.5 47.7 8.1 47.2 7 46.3 7.5 45.4 8.1 43.9 9.1 42.4 13.3 40.9 17.3 40.7 17.5 40.6 18.4 40.6 19.6 41.5 19.8 41.9 19L41.9 19 41.9 19 41.9 19ZM43.3 38.3C43.7 38.4 44.6 38.7 45.4 38.4 46 38.3 46.4 37.9 46.4 37.2 46.5 36.9 46 36.7 45.5 36.6 45.1 36.4 44.9 36.7 45.1 36.9 45.1 37 45.5 37.3 45.1 37.8 44.7 38.2 43.9 38.1 43.6 37.8 43.3 37.5 43.6 36.9 43.7 36.7 44 36.4 43.5 36.3 42.8 36.7 42.4 37.2 42.7 38.2 43.3 38.3L43.3 38.3 43.3 38.3 43.3 38.3ZM38 49.6C38.3 49.6 38.3 49.9 38.6 49.9 38.9 49.9 39.1 49.8 39.5 50.2 40.1 50.8 40.7 50.2 40 49.5 39.5 49 39.8 47.3 39.1 47.3 38.8 47.3 38.3 47.6 38 47.8 37.7 47.9 37.6 47.6 36.8 47.8 36 47.9 36.5 48.5 36.7 49.2 37 49.9 37.7 49.5 38 49.6L38 49.6 38 49.6 38 49.6ZM28.3 60.3C28.6 60.2 29.3 60 29.5 60 29.8 60 30.6 60.3 30.9 60.3 32.1 60 32.3 59.5 32.4 59.3 32.7 58.4 33.5 57.4 34.4 57.7 35.3 58.1 35.6 57.5 36 57.3 36.3 57.1 36.7 57.3 36.9 57.6 37.2 57.9 37.7 59.1 38.1 59.9 38.6 60.6 39.2 61.2 39.5 61.4 39.8 61.7 40.4 61.7 40.6 61.8 40.7 62 41.3 62.4 41.7 62.6 42.2 62.6 43.9 62.3 44 62.3 44.2 62.3 44.9 62.6 45.2 63 45.7 63.4 45.7 63.4 46 63.7 46.3 63.8 46.7 64.1 46.7 63.7 46.7 63.2 46.6 62.1 46.1 61.7 45.7 61.2 45.4 60.8 45.1 60.8 44.6 60.8 43.9 60.5 43.7 60.5 43 60.3 42.5 59.9 42.2 59.7 41.8 59.4 42.1 58.6 42.1 58.4 42.1 57.9 41.9 57.1 41.7 56.5 41.3 55.3 41.3 54.9 41.1 54.2 41 53.5 41.2 52.6 40.7 52.4 40.2 52.3 39.2 52 38.6 52.1 37.8 52.1 37.5 52.3 37.1 52.1 36.6 52 36.4 51.7 35.6 51.7 34.8 51.8 34.7 51.7 34.4 51.6 34.1 51.4 33.8 51.4 33.3 51.6 33 51.7 32.8 52 33 52.2 33.3 52.3 33.8 52.2 33.9 52.4 34.1 52.7 34.2 53.1 34.5 53.3 34.9 53.7 35.3 54 35.1 54.1 35 54.3 34.5 54.4 34.4 54.4 34.2 54.4 33.6 54 33.2 53.7 32.6 53.3 32.1 52.9 31.7 53.1 31.4 53.2 31.4 54 31.1 54.1 30.8 54.4 30.5 54.6 30.1 54.2 29.9 54 29.7 53.1 29.4 52.9 29.3 52.7 28.5 52.4 27.8 52.9 27 53.2 26.5 53.3 26.2 53.3 25.8 53.5 25.2 53.5 24.8 53.6 24.4 53.8 23.8 54.2 22.8 54.2 22 54.2 20.7 54.1 20.5 54.6 20.4 55 20.1 55.3 20.2 55.6 20.4 55.9 19.9 56.7 19.3 56.2 18.9 55.8 19 54.7 19.2 54.2 19.2 53.8 19.9 51.1 20.2 50.8 20.5 50.5 21.3 49 21.9 48.7 22.3 48.3 22.9 48.5 23.1 48.8 23.2 49.1 23.2 50.3 23.1 50.5 22.9 50.7 22.6 50.5 22.1 50.7 21.9 51.1 21.3 52 21.3 52.3 21.3 52.6 21.1 52.7 21.7 52.7 22.3 52.6 22.5 52.4 22.6 52.6 22.8 52.6 23.4 52.9 23.8 52.6 24.3 52.4 25.2 52.4 25.1 51.1 25 49.7 24.9 49.2 25.2 48.6 25.3 48.2 25.8 47.6 25.2 47 24.6 46.4 24.1 45.6 23.4 45.6 22 45.5 22.4 46.2 22.1 46.4 21.9 46.5 21.1 46.8 20.5 46.7 19.9 46.5 19.2 46.5 18.8 47 18.4 47.6 18.2 47.9 18.1 48.3 18.1 48.8 17.6 49.6 17.3 50 16.9 50.3 16.9 50.6 16.7 51.2 16.6 51.8 16.4 52.7 16.4 53 16.3 53.3 17 55.8 17.3 56.5 17.5 57.3 17.9 58.8 18.2 59.1 18.5 59.3 18.8 59.3 19.2 59.1 19.6 58.9 20.1 58.8 20.2 59.3 20.5 59.5 20.3 60.9 20.3 61.2 20.3 61.5 20.8 62.1 21 62.3 21.3 62.4 21.1 62.7 21.3 63 21.4 63.4 21.6 63.5 22 63.7 22.3 63.8 22.8 64 22.9 64.3 23.1 64.6 23.1 64.9 23.5 65.2 24 65.5 24.6 65.9 24.6 66.3 24.6 66.5 24.1 66.9 23.5 67 22.9 67.2 21.9 67.3 21.7 67.6 21.6 67.9 21.4 68.2 21.9 68.4 22.3 68.5 23.7 68.5 24.6 68.2 25.5 67.9 26.5 67.6 26.7 67.3 26.8 67.2 27.3 66.5 27.6 66.4 27.9 66.3 28.7 66.1 29.1 66 29.3 66 29.7 66 29.9 65.8 30 65.6 30.5 64.9 30.9 64.8 31 64.4 31.4 64.2 31.8 63.9 32.3 63.8 32.4 63.2 32.6 62.8 32.9 62.6 33.6 62.7 33.6 62.1 33.6 61.5 32.6 61.7 32 61.7 31.4 61.7 30.8 62 30 62.3 29.4 62.6 29 62.7 28.5 63 28 63.3 27.6 63.7 27.4 63.9 27.3 64.2 27.3 64.6 27 64.8 26.7 65 26.1 65.2 25.8 64.8 25.5 64.6 25.5 64.1 25.2 63.9 24.9 63.8 24.6 63.7 24.4 63.5 24.1 63.2 24.1 63 24 62.9 23.8 62.9 23.5 62.9 23.4 62.6 23.2 62.1 23.2 61.7 22.9 61.4 22.5 60.9 22.3 60 22 59.9 21.7 59.7 21.1 59.5 21.1 59.3 21.1 58.8 21.3 58.3 21.7 58.3 22.2 58.2 22 57.4 22.1 57.1 22.3 56.8 23.2 56 24 55.9 24.6 55.8 25.1 55.5 25.2 55.6 25.3 55.8 25.1 56.4 25.3 56.5 25.5 56.5 27.3 57 27.7 56.8 28.2 56.7 29.1 55.9 29.7 55.9 30.3 55.9 30.5 56.1 30.3 56.5 30 56.8 29.3 57.3 29 57.6 28.6 58 28.2 58.5 28.2 58.5 28.2 58.5 27.7 58.4 27.3 58.4 26.8 58.4 25.6 58.5 25.3 59.4 24.9 60.3 25.1 60.9 25.2 61.2 25.2 61.5 25.5 62.3 25.5 62.4 25.6 62.6 26.2 62.6 26.4 62.4 26.5 62.3 27 61.7 26.8 61.4 26.8 61.1 26.5 59.9 27 59.5 27.4 59.3 28 59.4 28 59.7 27.9 60 28 60.5 28.3 60.3L28.3 60.3 28.3 60.3 28.3 60.3ZM35.9 54.2C36.5 53.1 37.2 53.5 37.8 53.8 38.3 54.2 39.1 54.4 39.1 54.8 39.1 55.2 38.6 56.1 38.2 56.1 37.6 56.1 35.5 54.9 35.9 54.2L35.9 54.2 35.9 54.2 35.9 54.2ZM69.7 55.3C69.7 55 70.2 54.1 70 53.8 69.9 53.5 69.7 53.5 69.2 52.9 68.9 52.3 68.8 51.6 68.6 51.3 68.5 50.9 68.2 50.3 68 50.3 67.9 50.3 67.8 50.2 67.6 50 67.4 49.9 67 49.3 66.4 49.6 66.2 49.8 65.9 49.9 66.1 50.4 66.2 50.7 66.8 51.4 67.1 51.9 67.4 52.3 67.6 54 67.3 54.9 67.1 55.5 67.8 55.7 67.8 56.3 67.7 56.9 67.1 56.8 67.1 57.2 67.1 57.5 67.8 58.4 67.1 59 66.8 59.3 67.1 60.7 67.4 60.7 68 60.7 68.8 59.9 68.9 59.4 69.1 58.7 70.6 57 70.5 56.7 70.2 55.9 69.6 56.1 69.7 55.3L69.7 55.3 69.7 55.3 69.7 55.3ZM38.6 63.7C39.5 64 41.5 64 42.1 64 42.8 64 42.2 63.4 41.8 63.2 41.3 63.2 39.2 62.9 38.8 62.6 38.2 62.3 37.8 61.9 37.7 61.6 37.6 61.2 37.1 61.2 36.8 60.8 36.7 60.3 36.5 59.6 36.4 59.1 36.4 58.7 35.7 58.7 35.5 59 35 59.3 34.7 59.4 34.4 59.6 34.1 59.9 34.4 61 34.8 61 35.1 61 35.7 61.3 36 61.7 36.3 62.2 36.8 62.6 37 62.8 37.4 63.1 37.7 63.4 38.6 63.7L38.6 63.7 38.6 63.7 38.6 63.7ZM54.5 65.5C54.5 65.2 53.2 65.1 53.4 65.7 53.4 66.1 53.1 66.9 52.8 67.2 52.5 67.5 52.2 67.3 51.8 67.6 51.3 67.8 50.9 68.2 50.1 68.4 49.6 68.4 49 68.5 48.9 68.4 48.7 68.2 48.7 67.2 48.6 66.7 48.6 66.3 48 65.7 47.8 65.5 47.7 65.4 47.8 65.4 47.5 64.9 47.4 64.5 46.9 64.1 46.8 64.3 46.6 64.5 46.4 64.6 46.2 64.6 46 64.7 45.5 64.3 45.2 64 45.1 63.7 44.2 63.5 43.9 63.5 43.6 63.5 43.9 64.3 44.2 64.5 44.4 64.6 44.7 65.2 44.8 65.4 45 65.5 45.4 65.6 45.8 65.6 46.2 65.6 46.6 66 46.6 66.4 46.6 66.9 45.8 66.9 45.7 67 45.4 67.2 45.1 67.3 44.8 67.2 44.5 67 44.6 66.4 44.2 66 44 65.7 43 65.2 42.1 64.9 41.2 64.7 39.7 65.1 39.2 65.4 38.8 65.7 37.7 66.1 37.4 66.1 37.1 66.1 36.8 66 36.4 66.1 35.9 66.1 35.3 67.3 35.1 67.6 35 67.9 34.5 68.7 35.1 68.9 35.6 69 36.5 68.7 37 68.5 37.4 68.4 38.3 67.9 38.8 67.8 39.2 67.8 39.8 67.5 40.4 67.3 41 67.2 41.2 67 41.5 66.7 41.8 66.4 42.2 66.7 42.5 66.9 42.8 67 43.3 67 43.7 67.2 44.2 67.2 44.2 67.5 44.1 67.6 43.7 67.9 43.5 67.9 43 68 42.5 68 42.1 68.4 41.8 68.5 41.3 68.7 40.4 69 40.3 69.1 39.8 69.3 38.5 70 38.3 70.2 38.2 70.3 37.7 70.3 37.4 70.5 37.1 70.6 37 71.1 37.4 71.4 37.9 71.7 38.7 71.7 39.5 71.5 40.3 71.5 41.9 71.3 43.1 71.4 44.3 71.4 45.8 71.4 46.4 71.1 47.1 70.8 47.5 70.8 48.1 70.8 48.7 70.9 49 70.9 49.3 70.8 49.5 70.5 50.2 70.2 50.5 69.9 51.1 69.6 52.2 69.3 52.5 69.1 52.8 69 53.1 68.4 53.4 68.1 53.7 67.8 54.2 67.8 54.6 67.6 54.9 67.5 54.9 67.5 54.9 67.3 54.8 67.2 54.6 66.9 54.5 66.7 54.3 66.6 54.5 65.8 54.5 65.5L54.5 65.5 54.5 65.5 54.5 65.5ZM48.6 69.3C48.4 69.4 47.8 69.3 47.4 69.6 46.9 69.8 46.4 69.9 46.2 70 45.9 70.2 45.7 70.2 45.2 70.2 44.8 70.2 44.5 70.3 44.4 70.3 44.2 70.5 43.5 70.3 43.1 70.3 42.8 70.3 42.4 70.5 42.1 70.5 41.8 70.5 41.5 70.2 41.8 70 42.1 69.9 42.4 69.8 42.7 69.8 43.1 69.8 43.5 69.6 43.7 69.4 43.9 69.3 44.1 69.1 44.1 69.1 44 69.1 44.8 69 45.2 69 45.7 69 45.4 69.1 46 68.9 46.6 68.7 47.5 67.8 47.7 67.5 47.8 67.2 48.1 67.2 48.3 67.5 48.4 67.8 48.6 68.5 48.7 68.9 48.9 69 48.9 69.1 48.6 69.3L48.6 69.3 48.6 69.3 48.6 69.3ZM53.1 53.8C52.5 52.9 52.8 51.7 52.9 50.7 52.9 49.8 52.7 49.3 52.1 49.4 51.4 49.6 51.1 49.8 51.1 50.4 51.1 50.8 50.8 51 50.5 51.4 50.1 51.7 49.6 52.2 49.2 52.5 48.7 52.8 48.7 53.4 48.7 54 48.7 54.6 49.6 55.2 49.9 55 50.2 55 50.2 54.4 50.1 54 49.9 53.4 50.2 53.1 50.7 52.9 51.1 52.9 51.1 53.5 51.4 54.4 51.7 55.5 52.5 55.9 52.9 55.9 53.4 55.9 53.8 55.9 54.8 56.1 55.3 56.3 56.1 56.4 56 56.9 56 57.3 56.3 58.1 56.6 57.9 56.9 57.8 57.3 57.2 57.2 56.9 57 56.6 56 55.5 55.1 55 54.2 54.6 53.7 54.6 53.1 53.8L53.1 53.8 53.1 53.8 53.1 53.8ZM29 39.3C29.3 39.4 30 39.6 31.1 39.7 31.7 39.9 32.8 39.7 33.1 39.7 33.3 39.7 33.9 39.6 33.9 40.2 34.1 40.9 33.2 40.6 32.9 40.6 32.4 40.6 31.4 40.6 30.8 40.5 30.2 40.5 28.7 40.2 28.1 39.7 27.8 39.4 27.5 39 26.9 38.8 26.3 38.6 25.8 39.7 26.2 39.9 26.6 40 27 40.3 26.6 40.8 25.9 41.4 26.2 42.3 26.6 42.6 26.9 42.9 27.5 43.8 27.8 44.1 28.1 44.4 28.5 44.3 28.8 44.4 29 44.6 29.7 45 30 45.5 30.2 45.8 30.6 45.3 31.1 45 31.4 44.7 31.9 45.4 31.7 45.6 31.5 45.9 31.4 45.9 31.1 46.7 30.8 47.5 30.2 47.3 29.6 47.3 29 47.3 29.1 47.8 29.1 47.8 29.1 47.8 29.4 48.4 29.4 48.5 29.4 48.7 29 49 28.4 49 27.8 49 27.3 48.8 26.9 48.7 26.6 48.5 26.7 49.1 27 49.4 27.3 49.8 27.6 50.5 28.4 50.7 28.7 50.8 29.3 50.7 29.4 50.5 29.9 50.2 30.6 49.9 30.6 49.4 30.6 49 30.3 48.7 30.9 48.2 31.4 47.9 31.9 48.5 32.1 48.9 32.4 49 33.1 48.9 33.5 48.4 33.9 48.1 33.9 46.9 33.8 46.4 33.6 46 33.2 46 32.8 45.6 32.3 45.2 33 44.6 33 44.6 33 44.6 34.5 43.8 34.4 43.1 34.2 42.2 34.5 41.4 34.7 41 34.8 40.7 34.2 40.7 34.7 39.9 35 39.3 35.9 38.7 36 38.1 36 37.5 35.6 37.2 35.1 37 34.7 36.8 34.7 37.5 34.5 38.1 34.4 38.7 33.8 39 33.2 39.1L30.5 39.1C30 39 29.9 39 29.3 38.7 28.7 38.6 28.5 39.2 29 39.3L29 39.3 29 39.3 29 39.3ZM28.5 68.7C27.8 68.4 26.5 69.1 26.4 69.4 26.1 70 26.9 70.6 27.6 70.9 28.2 71.1 29.1 71.3 29.4 70.6 29.9 70 29.1 69.1 28.5 68.7L28.5 68.7 28.5 68.7 28.5 68.7ZM14.2 45.1C14.5 44.9 14.6 44.9 15.1 44.9 15.5 45.1 17.8 45.5 19.3 45.4 20.8 45.1 22.6 44.3 22.8 43.8 22.9 43.4 23.5 42.9 23.7 42.6 24 42.5 23.8 41.6 23.5 41.4 23.2 41.3 22.5 41 22.1 41.3 21.7 41.6 21.4 41.6 21 41.6 20.7 41.6 19.6 41.6 18.7 41.9 17.9 42 15.8 42.8 15.2 43.2 14.6 43.7 13.9 44.5 13.7 44.6 13.4 44.7 13.9 45.2 14.2 45.1L14.2 45.1 14.2 45.1 14.2 45.1ZM27.5 36.7C27.8 36.7 28.2 35.8 28.5 35.3 28.8 34.9 29.1 34.3 28.8 34 28.5 33.7 27.6 33.2 26.9 34 26.1 34.6 25.6 34.9 25.8 35.7 25.9 36.4 27 36.7 27.5 36.7L27.5 36.7 27.5 36.7 27.5 36.7ZM8.3 51.6C8.8 50.8 9.2 50.5 9.2 49.8 9.2 49 9.8 48.5 10.1 48.1 10.4 47.8 11.3 47 11.5 46.6 11.6 46.1 11.3 45.8 10.7 46 10.3 46.1 9.1 47 8.5 47.5 8.1 47.8 6.6 49.6 6.5 49.9 6.2 50.7 6.9 50.8 6.5 51.7 6.3 52 6.3 52.5 6.2 52.8 5.7 53.5 6.2 54.2 6.9 54.3 7.4 54.4 6.9 55.5 7.4 55.9 7.8 56.3 8.3 55.5 8.5 54.8 8.6 53.8 8.2 52.5 8.3 51.6L8.3 51.6 8.3 51.6 8.3 51.6ZM16.9 60.7C16.6 60.3 16 58.7 15.2 58.5 14.3 58.4 14.8 58.8 13.6 58.4 12.4 57.9 11.8 57.9 11.8 58.4 11.8 58.8 12.2 59.2 11.9 59.3 11.5 59.4 11.2 59.6 11 60.3 10.9 61.2 12.5 60.8 13.1 60.8 13.7 60.8 14.2 61.4 14.9 61.9 15.7 62.3 16 62.6 16.3 63.1 16.7 63.5 19 64.9 19.4 65.2 20.5 65.6 20.4 65.2 19.8 64.5 19.2 63.5 17.3 61.1 16.9 60.7L16.9 60.7 16.9 60.7 16.9 60.7ZM13 54.4C13.4 54.3 13.4 54 13.3 53.5 13.1 53.2 13.3 53.2 14 52.8 14.8 52.3 15.1 52.2 15.4 51.4 15.7 50.8 16.8 48.9 16.3 48.7 15.8 48.5 15.2 48.2 15.4 47.8 15.4 47.3 16.2 47.3 16.4 47.2 16.7 47 16.6 46.9 16.3 46.5 15.8 46.4 14.9 46.3 14.5 46.4 14 46.5 13.9 47 13.4 47.5 13.1 47.8 12.7 47.5 12.2 48.2 11.8 48.8 11.6 50.5 11.3 51.1 11 51.6 11 51.4 10.7 51.9 10.4 52.3 11.2 52.2 11.3 52.6 11.6 53.1 11.6 53.4 11.2 53.4 9.8 53.4 10.7 54 10.5 54.6 10.4 55 9.2 57.5 9.1 58.1 8.9 58.5 9.4 59 10 59.2 10.7 58.4 11 56.9 11.6 55.9 12.2 55 12.5 54.8 13 54.4L13 54.4 13 54.4 13 54.4Z"/>
    <polygon points="225.9 73.4 225.9 70.2 88.4 70.2 88.4 73.4 225.9 73.4"/>
      <path d="M88.9 22.1C88.9 21.1 90.7 21.4 90.7 21.4L101.5 21.4C101.5 21.4 108 21.6 110.6 24.4 115.6 30 113 35.9 111.3 37.4 110 38.6 107.8 39.2 107.8 39.2 107.8 39.2 111 39.9 113.2 41.9 115.7 44.1 118.7 52 115.5 57.2 112.5 62 108.6 62.7 103.7 62.6 99.2 62.4 100.1 61.9 95.5 62 91.7 62 89.7 62.2 89.7 62.2 89.7 62.2 88.2 62.3 88.3 61.3 88.5 60.4 89.3 60.5 90.7 59.7 91.5 59.1 92.2 57.5 92.4 56.1 92.7 54.3 92.8 51.7 92.8 51.7L92.8 29.3C92.8 29.3 92.7 28.9 92.7 28.5 92.7 25.7 90.5 23.3 89.7 23.1 89 22.8 89 22.6 88.9 22.1L88.9 22.1 88.9 22.1 88.9 22.1ZM98.2 25.4L98.2 37C98.2 37 98.3 37.6 98.5 37.9 98.7 38.3 99.4 38.5 99.4 38.5L101.1 38.5C101.1 38.5 102.2 38.4 103.1 38.2 103.7 38 105.4 37 106.5 35.7 107.3 34.8 108.1 32.7 108.1 31.2 108.1 27.8 106.9 26.5 105.2 25.7 103 24.6 100.1 24.6 100.1 24.6L99.1 24.6C99.1 24.6 98.5 24.6 98.4 24.8 98.2 25 98.2 25.4 98.2 25.4L98.2 25.4 98.2 25.4 98.2 25.4ZM98.2 41.9L98.2 57.7C98.2 58.1 98.8 58.5 99.2 58.7 100 59 100.7 59.1 100.7 59.1L104.1 59.1C104.1 59.1 106.5 59.2 108.4 58 110.7 56.5 111.4 53.2 111.3 50.8 111.1 47.4 109.9 45.6 107.9 43.8 105.7 41.8 100.9 41.9 100.9 41.9L98.2 41.9 98.2 41.9 98.2 41.9Z"/>
      <path d="M115.5 61.5C115.8 60.2 116.6 61.2 118.4 59.4 119.6 58 120.5 56.7 121.3 54.9 121.7 54 122.4 52.3 122.4 52.3L132.1 25.9C132.1 25.9 132.2 25 132.2 24.3 132.2 23.7 132.1 23.1 132.1 23.1 132.1 23.1 132.6 23 132.9 23 133.2 22.9 133.8 22.7 133.8 22.7L138.1 21.3 150.1 50.7C150.1 50.7 152 55.9 154 58.4 154.8 59.4 155.7 60.2 156.8 60.2 158.5 60.3 157.5 62.1 156.4 62.1 155.6 62.1 152.3 62 149.5 62 146.4 62.1 140.6 62.3 140.6 62.3 140.6 62.3 139.4 62.4 139.6 61.5 140 60.3 140.9 60.5 141.6 60.4 143.4 60 145.7 59.2 146.1 57.4 146.4 56.1 145.5 53.8 145.5 53.8L141.5 43.8 129.8 43.8 126.4 53.3C126.4 53.3 126 54.6 125.9 55.2 125.8 55.8 125.8 58 126.7 59 127.6 60.1 130 60.4 131.1 60.4 132.2 60.5 131.4 62.2 130.5 62.2 129.6 62.2 126 62 123.3 61.9 120.7 61.9 116.3 62.2 116.3 62.2 116.3 62.2 115.5 62.4 115.5 61.5L115.5 61.5 115.5 61.5 115.5 61.5ZM131 40.6L140.4 40.6 135.4 28.3 131 40.6 131 40.6 131 40.6Z"/>
      <path d="M154.7 22.2C154.7 22.2 155.8 22.3 157.3 22.4 158.7 22.4 161 22.5 161 22.5L176.8 22.5C176.8 22.5 179.4 22.5 182 22.3 184 22.1 187.1 21.9 187.1 21.9 187.1 21.9 186.9 24.1 186.4 26.8 185.9 29.5 185.5 31.2 185.5 31.2 185.5 31.2 185.3 32.2 185.1 32.3 184.8 32.5 183.4 33 183.4 33 183.4 33 183.7 31.2 183.6 30.2 183.5 28.9 183.2 26.9 182.3 26.3 180.8 25.3 179 25.3 177.6 25.3 176.2 25.2 173.9 25.3 173.3 25.7 172.6 26.2 172.7 27.4 172.7 27.4L172.7 54.1C172.7 54.1 172.6 57.5 174.2 58.7 175.5 59.7 177.7 60.3 177.7 60.3 177.7 60.3 179.3 60.3 179 61.4 178.7 62.2 177.8 62.3 177.8 62.3 177.8 62.3 172.2 62.1 169.5 62.1 165.5 62 162.2 62.3 160.9 62.3 159.4 62.3 159.8 60.4 161.1 60.3 161.9 60.2 164.1 60 165.5 58.4 167 56.8 167.2 53.5 167.2 53.5L167.2 28.6C167.2 28.6 167.1 26.8 166.6 26.1 165.6 25.1 163.1 25.2 161.1 25.3 158.5 25.5 157 26.5 156.3 28.1 155.6 29.9 155.3 32.1 154.8 32.3 154.2 32.6 152.9 32.9 152.9 32.9 152.9 32.9 153.5 30.2 154 27 154.3 24.9 154.7 22.2 154.7 22.2"/>
      <path d="M190.6 21.9C189.2 21.8 188.9 23.7 189.7 23.9 190.6 24.1 191.4 23.9 192.3 24.9 193.4 26.2 193.1 28.8 193.1 28.8L193.1 52.9C193.1 52.9 193.1 55.6 192.9 56.9 192.7 58.9 191.8 59.6 190.8 60 189.8 60.4 189.1 60.5 189 61.5 188.8 62.4 189.9 62.3 189.9 62.3 189.9 62.3 192.4 62.1 195.8 62.1 199.1 62 202.5 62.3 203.6 62.3 204.6 62.3 205.3 60.6 203.7 60.4 202 60.1 200.4 59.8 199.1 58.7 198.2 57.8 198.4 55.5 198.4 55.5L198.4 41.2 217.5 41.2 217.5 55.5C217.5 55.5 217.5 58.7 215.9 59.2 214.4 59.7 213.5 59.8 212.4 60 211.3 60.2 210.2 62.3 211.5 62.3 212.8 62.3 216.9 62 220.1 62 222 62 225.1 62.2 225.5 62.2 226.5 62.2 226.9 61.8 227.1 61.2 227.3 60.5 226.4 60.3 225.8 60.1 225 59.8 224.3 59.6 223.7 58.6 222.9 57.4 223.1 54.9 223.1 54.9L223.1 28.9C223.1 28.9 223 26.4 223.8 25.2 224.7 23.8 225.1 24 225.9 23.7 226.9 23.4 227.2 21.8 226.2 21.9 225.3 22 222 22.2 220.2 22.2 217.4 22.1 214.4 22 213.7 21.9 212.4 21.9 212.1 23.9 213.1 23.9 214.1 23.9 215.9 24.2 216.7 25.4 217.6 26.6 217.6 29 217.5 29L217.5 37.8 198.4 37.8 198.4 28.9C198.4 28.9 198.3 25.9 199.7 24.9 200.6 24.3 201.5 24.2 202.7 24 203.8 23.9 204.5 21.9 203.3 22 202 22 198.8 22 196 22 193.2 22 191.6 22 190.6 21.9"/>
    <g transform="translate(203 4)">
      <path d="M0.3 5.3C0.3 3.6 0.8 2.3 1.9 1.3 2.8 0.4 4.1 0 5.5 0 6.8 0 7.9 0.4 8.9 1.2 10.1 2.2 10.7 3.6 10.7 5.4 10.7 7 10.1 8.4 9.1 9.4 8.1 10.2 6.9 10.7 5.6 10.7 2.4 10.7 0.3 8.5 0.3 5.3L0.3 5.3 0.3 5.3 0.3 5.3ZM5.7 1.1C3.9 1.1 2.7 2.7 2.7 5.4 2.7 8.2 4 9.9 5.6 9.9 7.4 9.9 8.6 8.2 8.6 5.5 8.6 2.7 7.4 1.1 5.7 1.1L5.7 1.1 5.7 1.1 5.7 1.1Z"/>
      <polyline points="13.7 10.7 18.2 10.7 18.2 9.9 17.2 9.9 16.9 9.6 16.9 6 19 6 19.2 6.2 19.4 7.3 20.3 7.3 20.3 3.7 19.4 3.7 19.2 4.8 19 5 16.9 5 16.9 1.2 19.9 1.2 20.1 1.4 20.3 2.9 21.4 2.9 21.4 0.3 13.6 0.3 13.6 1 14.6 1.1 14.9 1.3 14.9 9.6 14.6 9.9 13.7 9.9 13.7 10.7"/>
    </g>
    <g transform="translate(90 4)">
      <path d="M0.1 0.3L0.1 1 1.1 1.1 1.3 1.3 1.3 6.6C1.3 7.8 1.4 8.7 2 9.5 2.6 10.3 3.8 10.7 5.3 10.7 8.2 10.7 9.4 9.5 9.4 6.7L9.4 1.4 9.6 1.1 10.5 1 10.5 0.3 7 0.3 7 1 8 1.1 8.2 1.4 8.2 6.5C8.2 8.5 7.6 9.5 5.9 9.5 4 9.5 3.4 8.6 3.4 6.6L3.4 1.3 3.6 1.1 4.5 1 4.5 0.3 0.1 0.3"/>
      <polyline points="12.9 10.7 16.5 10.7 16.5 10 15.5 9.8 15.3 9.6 15.3 2.3 20.7 10.7 22.4 10.7 22.4 1.4 22.7 1.1 23.6 1 23.6 0.3 20 0.3 20 1 21 1.1 21.3 1.4 21.3 8.1 16.5 0.7 16.5 0.3 12.9 0.3 12.9 1 13.9 1.1 14.2 1.3 14.2 9.6 13.9 9.8 12.9 10 12.9 10.7"/>
      <polyline points="26 10.7 30.6 10.7 30.6 9.9 29.5 9.9 29.3 9.6 29.3 1.3 29.5 1.1 30.6 1 30.6 0.3 26 0.3 26 1 27 1.1 27.3 1.3 27.3 9.6 27 9.9 26 9.9 26 10.7"/>
      <polyline points="32.7 0.3 32.7 1 33.7 1.2 37.2 10.7 38.7 10.7 42.1 1.2 43.1 1 43.1 0.3 39.8 0.3 39.8 1 40.6 1.1 40.8 1.3 38.4 8.4 35.8 1.3 36 1.1 36.9 1 36.9 0.3 32.7 0.3"/>
      <polyline points="45 10.7 53.2 10.7 53.2 7.9 52.2 7.9 51.9 9.6 51.7 9.8 48.2 9.8 48.2 5.8 50.1 5.8 50.4 6 50.5 7.1 51.4 7.1 51.4 3.5 50.5 3.5 50.4 4.6 50.1 4.8 48.2 4.8 48.2 1.1 51.2 1.1 51.4 1.3 51.6 2.7 52.7 2.7 52.7 0.3 45 0.3 45 1 45.9 1.1 46.1 1.3 46.1 9.6 45.9 9.9 45 9.9 45 10.7"/>
      <path d="M56.2 0.3L60.8 0.3C63.2 0.3 64.5 1.2 64.5 2.9 64.5 4.3 63.6 5.2 61.8 5.5 62.5 5.7 63.1 6 63.4 6.5 63.9 7.2 64 8 64.3 8.8 64.6 9.6 65.1 9.8 66.1 9.8L66.3 9.8 66.3 10.6C65.8 10.6 65.3 10.7 64.8 10.7 64.1 10.7 63.6 10.5 63.2 10.2 62.4 9.6 62.2 8.9 62 8.2 61.5 6.7 61.1 6 59.6 6L59.3 6 59.3 9.5 59.6 9.7 60.5 9.8 60.5 10.6 56.2 10.6 56.2 9.8 57.1 9.7 57.3 9.5 57.3 1.3 57.1 1.1 56.2 1 56.2 0.3 56.2 0.3 56.2 0.3ZM59.4 1.1L59.4 5C59.6 5.1 59.8 5.1 59.9 5.1 61.5 5.1 62.3 4.4 62.3 3 62.3 1.8 61.5 1.1 60.1 1.1L59.4 1.1 59.4 1.1 59.4 1.1Z"/>
      <path d="M68.7 10.2C69.7 10.5 70.7 10.7 71.6 10.7 74.1 10.7 75.7 9.4 75.7 7.5 75.7 6.6 75.2 5.8 74.3 5.2 73.4 4.6 72.6 4.4 72.1 4.1 71.3 3.6 70.9 3.2 70.9 2.5 70.9 1.6 71.6 1 72.7 1 73.2 1 73.5 1.1 73.8 1.2L74 1.4 74.3 3 75.4 3 75.4 0.5C74.4 0.2 73.5 0 72.5 0 70.3 0 68.9 1.3 68.9 3 68.9 3.8 69.3 4.5 70 5.1 70.7 5.7 71.4 6 72 6.3 73.1 6.8 73.6 7.4 73.6 8.2 73.6 9.1 72.9 9.7 71.6 9.7 71.2 9.7 70.7 9.6 70.3 9.5L70.1 9.3 69.9 7.4 68.7 7.4 68.7 10.2"/>
      <polyline points="78.9 10.7 83.4 10.7 83.4 9.9 82.4 9.9 82.1 9.6 82.1 1.3 82.4 1.1 83.4 1 83.4 0.3 78.9 0.3 78.9 1 79.9 1.1 80.1 1.3 80.1 9.6 79.9 9.9 78.9 9.9 78.9 10.7"/>
      <polyline points="86.1 0.3 86.1 3 87.1 3 87.4 1.3 87.6 1.2 89.4 1.2 89.4 9.6 89.2 9.9 88.2 9.9 88.2 10.7 92.8 10.7 92.8 9.9 91.8 9.9 91.5 9.6 91.5 1.2 93.3 1.2 93.6 1.3 93.8 3 94.9 3 94.9 0.3 86.1 0.3"/>
      <polyline points="96.7 0.3 96.7 1 97.7 1.2 100.7 6.6 100.7 9.6 100.5 9.8 99.4 9.9 99.4 10.7 104.1 10.7 104.1 9.9 103 9.8 102.8 9.6 102.8 6.2 105.7 1.2 106.6 1 106.6 0.3 103.3 0.3 103.3 1 104.2 1.2 104.3 1.4 102.1 5.2 100 1.3 100.1 1.1 101 1 101 0.3 96.7 0.3"/>
    </g>
  </g>
</svg>