<?xml version="1.0" encoding="utf-8"?>
<!-- Generator: Adobe Illustrator 16.0.1, SVG Export Plug-In . SVG Version: 6.00 Build 0)  -->
<!DOCTYPE svg PUBLIC "-//W3C//DTD SVG 1.1//EN" "http://www.w3.org/Graphics/SVG/1.1/DTD/svg11.dtd">
<svg version="1.1" id="Layer_1" xmlns="http://www.w3.org/2000/svg" xmlns:xlink="http://www.w3.org/1999/xlink" x="0px" y="0px"
	 width="159px" height="57px" viewBox="0 0 159 57" enable-background="new 0 0 159 57" xml:space="preserve">
<g id="Background" display="none">
</g>
<g id="Guides" display="none">
</g>
<rect x="-2.425" y="-1.58" fill="none" width="60.165" height="60.165"/>
<rect x="-5.238" y="-4.528" fill="none" width="65.796" height="65.795"/>
<circle fill="none" stroke="#515661" stroke-width="1.4928" stroke-miterlimit="3.8637" cx="27.632" cy="28.371" r="26.378"/>
<path fill="#515661" d="M32.54,48.424c0.396-0.158,1.055-0.688,1.134-0.924c0.079-0.234,0.316-0.184,0.369,0
	c0.052,0.188,0.211,0.66,0.316,0.818c0.105,0.156,0.105,0.263-0.052,0.343c-0.158,0.079-0.561,0.022-0.825,0.181
	c-0.263,0.157-0.593,0.213-0.804,0.346c-0.211,0.131-0.369,0.146-0.633,0.146c-0.263,0-0.443,0.117-0.574,0.144
	c-0.132,0.025-0.594-0.027-0.805-0.027c-0.212,0-0.535,0.086-0.719,0.086c-0.185,0-0.357-0.155-0.172-0.288
	c0.185-0.131,0.366-0.188,0.577-0.212c0.211-0.027,0.501-0.107,0.659-0.237c0.158-0.133,0.237-0.239,0.237-0.239
	s0.528-0.022,0.791-0.052C32.303,48.477,32.145,48.581,32.54,48.424z"/>
<path fill="#515661" d="M27.79,38.57c0.233,0.135,0.756,0.351,0.782,0.562c0.026,0.21-0.254,0.853-0.57,0.853
	c-0.317,0-1.78-0.812-1.545-1.215C26.858,38.087,27.4,38.348,27.79,38.57z"/>
<path fill="#515661" d="M38.165,18.769c-0.407-0.051-0.83-0.208-0.515-0.508c0.346-0.331,0.259-0.619,0.45-0.848
	c0.172-0.207,0.364-0.424,0.313-0.627c-0.051-0.203-0.458-0.458-0.254-0.662c0.204-0.204,0.56-0.763,0.713-1.221
	c0.152-0.458,0.966-2.34,1.119-2.747c0.153-0.407,0.153-0.814,0.356-1.069c0.203-0.254,1.157-1.676,1.776-1.785
	c0.538-0.095,0.947,0.011,0.947,0.011s1.375,1.061,1.664,1.359C45.121,11.07,47.855,14.448,48.2,15
	c0.182,0.291,2.298,4.366,2.597,5.4c0.114,0.395,0.529,1.494,0.69,2.091c0.059,0.22,0.528,3.195,0.528,3.195
	s-1.028,0.488-1.201-0.202c-0.095-0.381-0.375-1.872-0.477-2.177c-0.102-0.306-0.442-0.933-0.517-1.207
	c-0.076-0.28-0.277-1.039-0.379-1.344c-0.102-0.306-0.744-1.834-0.897-2.241c-0.153-0.407-0.285-0.921-0.349-1.068
	c-0.103-0.242-0.769-1.38-0.057-1.573c0.678-0.184-0.697-1.663-0.988-1.724c-0.655-0.138-2.19-0.771-2.742-0.598
	c-0.206,0.064-0.394,0.452-0.241,0.655c0.152,0.204,1.36,0.466,1.654,0.621c0.251,0.132,0.809,0.351,0.758,0.758
	c-0.026,0.214-0.263,0.547,0.042,0.752c0.305,0.203,0.762,0.209,0.689,0.868c-0.072,0.657,0.113,0.906,0.407,1.31
	c0.256,0.351,0.33,0.944,0.482,1.275c0.125,0.27-0.768,0.093-0.896-0.207c-0.152-0.355-0.616-1.4-0.897-1.655
	c-0.24-0.219-0.617-0.026-0.565,0.229c0.051,0.254,0.575,1.338,0.839,1.679c0.312,0.402,1.144,0.719,1.347,1.126
	c0.204,0.406,0.606,0.917,0.759,1.172c0.152,0.254,0.751,0.827,0.827,1.896c0.05,0.71,0.381,1.435,0.482,1.688
	c0.102,0.254-0.469,0.345-0.655,0.172c-0.304-0.285-0.497-0.613-0.521-1.07c-0.03-0.551-0.354-1.917-0.855-2.635
	c-0.585-0.839-0.875-1.155-1.129-1.359c-0.254-0.203-1.028-0.925-1.286-1.256c-0.294-0.379-0.744-1.123-0.897-1.632
	c-0.152-0.508-0.679-0.381-0.758,0.069c-0.076,0.433-0.077,0.809,0.483,1.471c0.559,0.662,0.753,1.17,1.211,1.272
	s0.713,0,1.068,0.611c0.356,0.61,1.254,2.139,1.305,2.494c0.051,0.357-0.894,0.27-1.034-0.207c-0.123-0.417-0.515-1.435-0.667-1.688
	c-0.152-0.255-0.27-0.572-0.575-0.368c-0.306,0.203,0.115,0.796,0.207,1.034c0.115,0.298-0.458,0.512-0.712,0.207
	c-0.254-0.306-0.418-0.932-0.574-1.218c-0.138-0.252-0.478-0.59-0.647-0.509c-0.341,0.164-0.121,0.745-0.02,1.152
	c0.101,0.407-0.226,0.59-0.514,0.375c-0.407-0.306-0.33-1.069-0.585-1.424c-0.254-0.357-0.661-0.561-0.712-0.917
	c-0.051-0.356,0.017-0.844,0.204-1.018c0.356-0.331,0.203-0.636,0.153-0.865c-0.046-0.205-0.182-0.395-0.2-0.679
	c-0.026-0.407,0.25-0.415,0.352-0.618c0.102-0.205,0.077-0.553,0.015-0.76c-0.069-0.23-0.292-0.542,0.115-0.644
	c0.407-0.102,0.572-0.033,0.828,0.069c0.254,0.102,0.874,0.47,1.077,0.47c0.204,0,0.94,0.017,0.814-0.596
	c-0.037-0.18-0.56-0.498-0.763-0.396c-0.204,0.102-0.601,0.124-0.83-0.052c-0.298-0.229-1.129-1.042-1.18-1.144
	s0.381-1.042,0.788-1.195c0.407-0.153,0.963-0.265,0.811-0.621c-0.152-0.355-0.749-0.436-0.902-0.69
	c-0.153-0.255-0.575-0.676-0.88-0.473c-0.305,0.204-0.656,0.258-0.86,0.309c-0.203,0.051-0.56,0.356-0.662,0.764
	c-0.101,0.407-0.976,2.017-1.017,2.543c-0.016,0.21-0.662,0.712-0.56,0.967c0.102,0.254,0.305,0.152,0.509,0.204
	c0.203,0.05,0.101,0.458-0.153,0.763c-0.254,0.305-0.283,0.67-0.356,0.814c-0.123,0.242-0.572,0.159-0.647,0.401
	C38.739,18.323,38.485,18.576,38.165,18.769z"/>
<path fill="#515661" d="M41.375,8.291c0,0-1.653,0.866-1.956,1.239c-0.236,0.292-0.56,1.793-0.672,1.961
	c-0.112,0.168-0.217,0.442-0.217,0.723c0,0.281,0.049,0.453-0.231,1.182c-0.28,0.728-0.504,1.12-0.616,1.681
	c-0.112,0.559,0.224,0.896-0.056,1.4c-0.28,0.504-0.561,0.812-0.617,1.093c-0.056,0.28-0.329,0.639-0.441,0.918
	c-0.112,0.281-0.897,0.561-0.729,0.057c0.168-0.505,0.636-2.014,0.972-3.751c0.337-1.737,0.358-2.635,0.946-4.4
	c0.555-1.663,2.674-2.883,2.674-2.883L41.375,8.291z"/>
<path fill="#515661" d="M35.77,36.391c-0.231,0.256-0.591,0.564-0.874,0.744s-0.36,0.646-0.386,1.028
	c-0.026,0.385,0.591,0.718,0.771,0.667c0.18-0.051,0.128-0.411,0.051-0.745c-0.078-0.334,0.154-0.616,0.437-0.668
	c0.283-0.052,0.257,0.31,0.462,0.951c0.205,0.641,0.745,0.95,1.028,0.977c0.283,0.026,0.584-0.049,1.184,0.097
	c0.475,0.115,0.897,0.238,0.846,0.545c-0.052,0.311,0.205,0.746,0.385,0.695c0.179-0.052,0.462-0.464,0.411-0.668
	c-0.051-0.205-0.745-0.926-1.361-1.209c-0.616-0.283-0.925-0.308-1.311-0.822c-0.385-0.514-0.18-1.387-0.128-2.055
	c0.051-0.669-0.206-0.881-0.565-0.83c-0.359,0.051-0.583,0.2-0.551,0.586C36.194,35.992,36.002,36.133,35.77,36.391z M31.753,38.812
	c-0.567-0.125-0.47,0.146-0.444,0.319c0.025,0.173,0.371,0.47,0.444,0.567c0.074,0.098-0.165,0.812,0.452,0.564
	c0.162-0.062,0.263,0.148,0.411,0.37c0.149,0.224,0.099,0.493,0.074,0.666c-0.024,0.173,0.321,0.271,0.543,0.519
	c0.376,0.42,1.11,0.492,1.603,0.492c0.494,0,1.208-0.021,1.751-0.318c0.418-0.229,1.151-0.424,1.375-0.521
	c0.222-0.1,0.714,0.127,0.896,0.033c0.247-0.122,0.122-0.426,0-0.599c-0.123-0.173-0.482-0.218-0.654-0.192
	c-0.173,0.023-0.407-0.029-0.703-0.128s-0.443-0.246-0.888-0.124c-0.444,0.124-1.505,0.124-1.998-0.074
	c-0.493-0.195-0.766-0.763-0.912-1.106c-0.152-0.358-0.604,0.036-0.877-0.015C32.616,39.229,32.257,38.922,31.753,38.812z
	 M34.549,44.682c0.014,0.286,0.242,0.697,0.345,0.826c0.104,0.128,0.483,0.62,0.759,0.688c0.18,0.047,0.711-0.067,0.968-0.1
	c0.438-0.052,0.545-0.669,0.031-0.796c-0.349-0.088-0.655-0.173-0.758-0.653c-0.109-0.51-0.08-0.707-0.585-0.69
	C35.02,43.966,34.515,43.99,34.549,44.682z M37.157,43.396c0.249-0.102,1.42-0.125,1.57-0.076c0.149,0.052,0.44,0.359,0.544,0.601
	c0.035,0.083,0.424,0.69,0.275,0.966c-0.15,0.274-0.31,0.483-0.275,0.828c0.026,0.275,0.343,0.441,0.724,0.275
	c0.38-0.167,0.172-0.414,0.651-0.649c0.185-0.091,0.125-1.097,0.125-1.222s-0.199-0.723-0.324-0.872s-0.423-0.324-0.449-0.474
	c-0.025-0.149-0.149-0.426-0.449-0.448c-0.299-0.025-1.503,0.128-1.968,0.286c-0.464,0.158-0.674,0.486-0.749,0.608
	C36.758,43.348,36.809,43.546,37.157,43.396z M46.276,35.213c-0.077,0.104-0.254,0.273-0.154,0.539
	c0.078,0.207,0.463,0.693,0.668,0.977c0.206,0.282,0.303,1.408,0.121,2.026c-0.106,0.364,0.285,0.485,0.323,0.865
	c0.042,0.41-0.379,0.425-0.379,0.579s0.325,0.761-0.034,1.172c-0.242,0.275-0.04,1.13,0.171,1.138
	c0.338,0.013,0.829-0.461,1.053-0.713c0.206-0.231,1.012-1.63,0.862-1.965c-0.203-0.451-0.531-0.418-0.458-0.89
	c0.036-0.23,0.295-0.803,0.219-0.982c-0.077-0.18-0.208-0.203-0.464-0.588c-0.257-0.387-0.359-0.85-0.437-1.079
	c-0.077-0.231-0.308-0.565-0.385-0.592c-0.077-0.026-0.129-0.076-0.257-0.205C46.996,35.367,46.688,35.008,46.276,35.213z
	 M49.199,34.732c-0.379-0.256-0.483-0.791-0.586-0.945c-0.104-0.153-0.776-1.16-1.007-1.264c-0.25-0.112-0.951-0.951-1.696-1.336
	c-0.745-0.388-1.387-0.283-2.261-0.207c-0.873,0.078-2.364,1.054-2.62,1.105c-0.257,0.05-0.54-0.335-0.848-0.488
	c-0.309-0.154-0.488-0.053-0.823-0.154c-0.333-0.104-0.411-0.23-0.796-0.438c-0.386-0.206-0.591-0.104-0.9,0.025
	c-0.309,0.128,0.052,0.386,0.411,0.514c0.361,0.128,0.849,0.154,1.081,0.438c0.23,0.283-0.129,0.412-0.386,0.438
	s-0.513-0.152-0.694-0.281c-0.18-0.129-0.455,0.307-0.352,0.512c0.102,0.205,0.352,0.233,0.558,0.312
	c0.206,0.076,0.977-0.117,1.156-0.015c0.18,0.104,0.086,0.444,0.009,0.6c-0.078,0.154,0.07,0.526,0.276,0.655
	c0.206,0.127-1.434-0.055-1.493,0.195c-0.127,0.543,0.424,0.56,0.771,0.516c0.446-0.057,0.252-0.029,1.542-0.104
	c1.799-0.104,2.903,0.692,3.417,1.002s1.012,1.488,1.063,2.338c0.052,0.849-0.41,1.182-0.488,1.875
	c-0.076,0.693,0.396,2.438,0.498,2.771c0.103,0.333,0.644,0.144,0.619-0.038c-0.026-0.18,0.042-0.318,0.221-0.552
	c0.18-0.229,0.267-0.257,0.112-0.616c-0.154-0.359-0.28-0.759-0.28-1.4c0-0.643,0.186-0.608,0.392-1.791
	c0.206-1.185-0.416-2.405-0.699-3.127c-0.283-0.72-1.798-1.311-2.081-1.488c-0.283-0.18-0.565-0.463-0.668-0.616
	s-0.36-0.078-0.591-0.283c-0.231-0.206,0.296-0.421,0.456-0.509c0.337-0.182,0.747-0.566,0.854-0.493
	c0.318,0.218-0.062,0.597,0.11,0.701c0.213,0.127,0.594-0.298,0.759-0.174c0.205,0.155,0.657,0.452,0.138,0.587
	c-0.492,0.127,0.059,0.398,0.291,0.374c0.13-0.015,0.674-0.408,0.916-0.202c0.174,0.15-0.215,0.555,0.171,0.655
	c0.158,0.04,0.364,0.114,0.724,0.14c0.359,0.025,0.309,0.359,0.437,0.359s0.642-0.051,1.053,0.104
	c0.411,0.153,1.051,0.768,1.259,1.002c0.318,0.359,0.707-0.08,0.836-0.261c0.128-0.181-0.065-0.535-0.194-0.511
	C49.738,34.682,49.418,34.881,49.199,34.732z M37.842,25.208c-0.206,0.257-0.003,0.874,0.177,0.823
	c0.301-0.085,0.589-0.268,0.667-0.344c0.077-0.078,0.379-0.376,0.919-0.299c0.54,0.077,1.347,0.54,1.475,0.617
	c0.129,0.077,0.476,0.319,0.456,0.715c-0.02,0.396-0.436,0.414-0.738,0.596c-0.234,0.14-0.412,0.309-0.694,0.282
	c-0.283-0.025-0.796-0.282-1.079-0.18c-0.283,0.103-0.54,0.36-0.283,0.565c0.257,0.206,0.627,0.107,0.91,0.082
	c0.283-0.025,0.193,0.609-0.172,0.655c-0.412,0.051-0.523,0.627-0.241,0.586c0.539-0.078,0.616,0.293,0.436,0.447
	c-0.18,0.154-0.61,0.241-0.712,0.346c-0.103,0.102,0.192,0.379,0.449,0.379c0.256,0,0.714-0.283,0.827-0.347
	c0.332-0.182,0.602-0.11,0.893,0.14c0.245,0.207,0.797-0.412,1.414-0.517c0.617-0.103,1.101-0.294,1.287-0.271
	c0.275,0.033,0.281,0.593,0.436,0.617c0.154,0.025,0.82,0.015,1.206,0.063c0.386,0.052,0.993,0.409,1.304,0.299
	c0.455-0.157,0.058-0.555,0.007-0.71c-0.052-0.152-0.052-0.333-0.129-0.514c-0.077-0.182-0.36-0.385-0.385-0.642
	c-0.026-0.258,0.231-1.028-0.437-1.233c-0.668-0.207-0.986-0.171-1.011-0.326c-0.026-0.154,0.035-0.523-0.12-0.549
	c-0.154-0.025-1.878-0.146-2.087-0.209c-0.421-0.13-1.073-1.153-1.767-1.332c-0.693-0.18-1.202-0.4-1.773-0.078
	C38.484,25.208,38.15,25.235,37.842,25.208z M31.309,26.75c0.138-0.161-0.271-0.327-0.621,0c-0.367,0.345-0.092,0.998,0.207,1.119
	c0.305,0.124,0.823,0.297,1.356,0.109c0.391-0.138,0.689-0.338,0.689-0.821c0-0.207-0.298-0.354-0.555-0.434
	c-0.265-0.083-0.309,0.102-0.256,0.206c0.051,0.102,0.302,0.244,0.025,0.553c-0.271,0.302-0.773,0.185-0.951,0
	C30.964,27.233,31.233,26.839,31.309,26.75z M22.416,26.781c-0.36,0.359-0.237,0.743,0.046,0.974
	c0.225,0.184,1.153,0.309,1.608,0.138c0.368-0.138,0.658-0.625,0.632-0.907c-0.019-0.205-0.18-0.385-0.437-0.488
	c-0.257-0.103-0.308,0.205-0.206,0.411c0.103,0.206,0.206,0.668-0.462,0.72c-0.668,0.052-0.637-0.479-0.54-0.771
	C23.213,26.396,22.956,26.344,22.416,26.781z M28.729,35.186c-0.352-0.316-0.18-1.412-0.643-1.438
	c-0.211-0.012-0.513,0.206-0.667,0.309c-0.154,0.104-0.308-0.051-0.771,0c-0.462,0.053-0.206,0.51-0.077,0.85
	c0.206,0.539,0.745,0.283,0.899,0.334c0.155,0.052,0.181,0.229,0.386,0.229c0.206,0,0.359-0.104,0.617,0.205
	C28.82,36.09,29.243,35.648,28.729,35.186z M20.095,24.951c-0.54,0.437-0.797,0.635-0.706,1.092
	c0.103,0.513,0.874,0.667,1.131,0.667s0.591-0.564,0.745-0.898c0.138-0.299,0.343-0.676,0.163-0.86
	C21.202,24.721,20.558,24.489,20.095,24.951z M22.439,28.33c-0.344-0.045-0.444-0.098-0.805-0.253
	c-0.359-0.154-0.452,0.312-0.298,0.415c0.155,0.103,0.644,0.229,1.378,0.297c0.438,0.042,1.102,0.013,1.311-0.022
	c0.203-0.034,0.574-0.137,0.601,0.303c0.032,0.515-0.527,0.309-0.739,0.312c-0.272,0.003-0.967-0.032-1.379-0.086
	c-0.411-0.052-1.425-0.274-1.792-0.528c-0.247-0.17-0.458-0.495-0.817-0.598c-0.36-0.103-0.661,0.561-0.378,0.69
	c0.168,0.077,0.506,0.276,0.207,0.574c-0.414,0.416-0.131,1.041,0.023,1.195s0.627,0.835,0.781,0.989
	c0.154,0.153,0.548,0.071,0.702,0.175c0.082,0.055,0.566,0.395,0.771,0.668c0.154,0.206,0.463-0.104,0.72-0.309
	c0.257-0.207,0.514,0.205,0.411,0.41c-0.103,0.207-0.154,0.207-0.36,0.67c-0.205,0.461-0.668,0.41-0.976,0.41
	c-0.308,0-0.256,0.309-0.256,0.309s0.205,0.309,0.205,0.462s-0.36,0.31-0.72,0.31c-0.359,0-0.719-0.104-0.976-0.156
	c-0.256-0.051-0.18,0.312,0.051,0.518c0.207,0.186,0.462,0.691,0.925,0.821c0.179,0.051,0.583-0.017,0.72-0.104
	c0.289-0.185,0.771-0.427,0.771-0.719c0-0.294-0.201-0.557,0.242-0.822c0.344-0.207,0.605,0.205,0.812,0.359
	c0.205,0.154,0.591-0.026,0.899-0.282c0.309-0.257,0.252-0.974,0.18-1.312c-0.078-0.358-0.413-0.272-0.694-0.516
	c-0.36-0.308,0.18-0.719,0.18-0.719s0.95-0.54,0.899-1.025c-0.053-0.514,0.068-1.08,0.206-1.361
	c0.091-0.188-0.329-0.221-0.046-0.683c0.241-0.395,0.868-0.783,0.919-1.194c0.051-0.412-0.273-0.588-0.581-0.69
	c-0.309-0.104-0.363,0.343-0.43,0.735c-0.072,0.418-0.483,0.644-0.874,0.736C23.941,28.375,22.784,28.377,22.439,28.33z
	 M25.794,41.577c-0.207,0.206-0.442,0.276-0.655,0.38c-0.252,0.122-0.073,0.9,0.276,0.861c0.204-0.021,0.585,0.209,0.758,0.481
	c0.166,0.267,0.458,0.612,0.586,0.688c0.286,0.171,0.552,0.414,1.103,0.587c0.606,0.188,1.894,0.186,2.331,0.159
	c0.437-0.025,0.098-0.41-0.159-0.438c-0.256-0.025-1.663-0.249-1.997-0.402s-0.6-0.5-0.676-0.681
	c-0.077-0.181-0.447-0.221-0.602-0.478c-0.154-0.258-0.292-0.777-0.344-1.06C26.363,41.398,25.957,41.417,25.794,41.577z
	 M37.56,46.811c-0.203,0.181-0.373,0.164-0.678,0.316c-0.305,0.152-0.634,0.447-1.143,0.523c-0.248,0.039-0.657,0.104-0.784,0.029
	c-0.127-0.076-0.185-0.836-0.235-1.113c-0.05-0.279-0.432-0.659-0.534-0.765c-0.101-0.102-0.076-0.151-0.229-0.405
	c-0.152-0.254-0.407-0.435-0.534-0.381c-0.127,0.051-0.229,0.127-0.407,0.152c-0.178,0.021-0.483-0.206-0.636-0.436
	c-0.153-0.229-0.687-0.305-0.916-0.305c-0.228,0,0.026,0.432,0.179,0.561c0.153,0.128,0.355,0.482,0.432,0.609
	c0.076,0.127,0.432,0.178,0.687,0.202c0.254,0.025,0.508,0.181,0.508,0.483c0,0.307-0.432,0.307-0.559,0.434
	c-0.127,0.125-0.339,0.163-0.568,0.088c-0.229-0.076-0.167-0.477-0.42-0.757c-0.145-0.159-0.869-0.553-1.429-0.704
	c-0.559-0.154-1.603,0.074-1.908,0.279c-0.305,0.202-1.043,0.508-1.246,0.508c-0.204,0-0.395-0.092-0.726-0.041
	c-0.331,0.053-0.7,0.805-0.827,1.035c-0.127,0.229-0.391,0.665-0.034,0.792c0.355,0.126,0.925-0.108,1.231-0.185
	c0.304-0.075,0.94-0.406,1.246-0.457c0.306-0.051,0.683-0.229,1.069-0.33c0.422-0.11,0.544-0.271,0.748-0.45
	c0.204-0.177,0.497-0.017,0.7,0.085c0.204,0.102,0.451,0.173,0.757,0.225c0.306,0.051,0.28,0.252,0.195,0.336
	c-0.12,0.121-0.365,0.213-0.67,0.265c-0.305,0.051-0.638,0.286-0.829,0.341c-0.269,0.074-0.869,0.354-1,0.414
	c-0.286,0.129-1.169,0.615-1.272,0.691c-0.101,0.076-0.44,0.066-0.643,0.168c-0.204,0.104-0.333,0.39-0.028,0.617
	c0.306,0.229,0.864,0.163,1.373,0.111c0.509-0.051,1.597-0.216,2.436-0.141c0.841,0.076,1.833,0.035,2.213-0.168
	c0.381-0.203,0.708-0.222,1.064-0.195c0.356,0.023,0.631,0.1,0.784-0.028c0.153-0.128,0.602-0.405,1.009-0.532
	c0.407-0.127,1.048-0.34,1.303-0.467c0.255-0.127,0.426-0.484,0.62-0.681c0.207-0.205,0.482-0.171,0.793-0.31
	c0.21-0.096,0.265-0.104,0.24-0.23c-0.025-0.128-0.199-0.321-0.275-0.426c-0.076-0.103,0-0.647,0-0.824
	c0-0.18-0.74-0.279-0.689,0.102C37.964,46.131,37.763,46.633,37.56,46.811z M38.085,35.741c-0.302,0.502-0.078,0.481,0.324,0.799
	c0.405,0.321,0.277,0.805,0.302,1.157c0.025,0.352,0.482,0.475,0.683,0.626c0.202,0.149,0.367,0.456,0.619,0.582
	c0.251,0.125,0.52,0.098,0.796,0.396c0.277,0.304,0.171,0.689,0.367,1.058c0.255,0.473,0.655,0.326,0.754,0.681
	c0.058,0.21-0.101,0.503-0.126,0.704c-0.025,0.201,0.181,1.08,0.181,1.732c0,0.653-0.508,1.233-0.558,1.61
	c-0.051,0.376,0.101,0.327,0.276,0.679c0.176,0.354-0.79,0.432-0.891,0.558c-0.1,0.126-0.636,0.692-0.764,0.764
	c-0.241,0.14-0.896,0.948-0.931,1.293c-0.069,0.69-2.964,0.793-2.861,2.413c0.032,0.497-0.724,0.346-1.724,0.793
	c-0.677,0.305-2.088-0.346-2.516-0.346c-0.427,0-3.654,0.277-4.067,0.242c-0.329-0.027-0.857-0.539-1.04-0.641
	c-0.401-0.219-0.681-0.42-1.335-0.546c-0.654-0.125-0.99-0.228-1.04-0.378c-0.051-0.148,0.147-0.404,0.198-0.607
	c0.05-0.199-0.101-0.478-0.227-0.604s-0.196-0.771-0.196-1.002c0-0.365,0.321-0.962,0.519-1.372c0.196-0.412,0.429-0.44,0.63-0.616
	c0.201-0.177,0.854-0.339,0.784-0.615c-0.05-0.201-0.276-0.486-0.553-0.662c-0.301-0.192-0.823,0.063-1.275,0.24
	c-0.452,0.176-1.141,0.809-1.241,1.033c-0.1,0.227-0.288,0.821-0.471,1.227c-0.182,0.4,0,1.02,0.254,1.746
	c0.078,0.226,0.141,0.625,0.217,0.93c0.076,0.301,0.377,0.501,0.578,0.701c0.201,0.203,0.197,0.483,0.224,0.66
	c0.025,0.178-0.19,1.129,0.036,1.455c0.226,0.326,1.119,0.348,1.018,0.146c-0.082-0.164,0.139-1.335,0.691-1.335
	c1.127,0,1.154,1.126,1.636,1.298c0.107,0.039,0.917-0.019,2.386-0.095c2.024-0.104,4.256-0.521,4.343-0.553
	c0.151-0.049,2.037-0.846,2.138-0.896c0.1-0.052,1.31-0.528,2.24-0.931c0.931-0.402,2.309-1.094,2.184-1.287
	c-0.414-0.646-0.035-1.303,0.166-1.479c0.276-0.239,1.421-0.905,1.565-1.018c0.481-0.38,0.835-0.837,0.925-1.072
	c0.089-0.235,0.104-0.646,0.196-0.841c0.083-0.178,0.832-0.171,0.756,0.18c-0.069,0.321,0.413,0.555,0.654,0.727
	c0.194,0.139,0.648-0.521,0.724-0.621c0.31-0.413-0.073-1.055-0.903-0.93c-0.623,0.096-0.311-0.662-0.336-0.839
	c-0.025-0.178-0.538-0.243-0.588-0.616c-0.017-0.129-0.185-0.496-0.336-0.672c-0.15-0.177-0.504-0.332-0.504-0.533
	c0-0.176,0.258-0.229,0.308-0.504c0.05-0.274-0.089-0.677-0.14-0.951c-0.05-0.277-0.22-1.39,0.056-1.515
	c0.277-0.125,0.348,0.229,0.448,0.505c0.101,0.275,0.51,0.344,0.56,0.168c0.05-0.176,0.045-0.689-0.056-1.094
	c-0.101-0.4-0.879-0.859-1.106-0.938c-0.226-0.074-0.276-0.125-0.503-0.276c-0.226-0.147-1.74-0.097-2.302-0.215
	c-0.691-0.146-1.251-0.433-1.527-0.582C38.426,35.518,38.437,35.489,38.085,35.741z M21.21,47.956
	c-0.534-0.229-1.294,0.235-1.395,0.459c-0.172,0.38,0.275,0.792,0.793,0.965c0.403,0.136,1,0.172,1.206-0.207
	C22.04,48.759,21.579,48.113,21.21,47.956z M20.555,46.369c0.201-0.075,0.655-0.207,0.992-0.288
	c0.154-0.037,0.424,0.001,0.525-0.126c0.101-0.126,0.432-0.63,0.532-0.882c0.101-0.251,0.302-0.401,0.605-0.554
	c0.302-0.15,0.338-0.547,0.453-0.73c0.133-0.212,0.688-0.084,0.651-0.521c-0.038-0.438-0.785-0.336-1.138-0.311
	c-0.352,0.023-0.792,0.206-1.275,0.414c-0.398,0.17-0.722,0.306-1,0.48c-0.277,0.178-0.579,0.408-0.655,0.588
	c-0.075,0.176-0.108,0.405-0.309,0.559c-0.202,0.15-0.58,0.227-0.781,0c-0.201-0.227-0.19-0.505-0.392-0.605
	c-0.201-0.101-0.437-0.16-0.515-0.301c-0.108-0.195-0.106-0.343-0.252-0.404c-0.163-0.065-0.35-0.01-0.427-0.25
	c-0.094-0.287-0.048-0.521-0.288-0.756c-0.285-0.279-0.351-0.897-0.552-1c-0.201-0.101-0.585-0.178-0.585-0.38
	c0-0.231,0.141-0.509,0.392-0.559c0.276-0.058,0.227-0.556,0.303-0.757c0.076-0.201,0.705-0.68,1.158-0.805
	c0.454-0.127,0.68-0.252,0.806-0.178c0.126,0.075-0.025,0.479,0.126,0.555c0.151,0.075,1.31,0.353,1.611,0.227
	c0.303-0.125,0.932-0.604,1.31-0.578c0.378,0.023,0.555,0.176,0.428,0.429c-0.125,0.251-0.705,0.479-0.855,0.729
	c-0.152,0.251-0.479,0.554-0.479,0.554s-0.277-0.05-0.579-0.075c-0.302-0.025-1.108,0.051-1.334,0.654
	c-0.227,0.604-0.126,1.008-0.076,1.184c0.05,0.178,0.177,0.683,0.227,0.808c0.05,0.126,0.403,0.126,0.554,0.024
	c0.151-0.102,0.355-0.492,0.304-0.695c-0.05-0.2-0.276-1.031,0.069-1.207c0.249-0.121,0.68-0.012,0.655,0.142
	c-0.025,0.147,0.04,0.431,0.241,0.379c0.201-0.052,0.591-0.173,0.793-0.173c0.201,0,0.715,0.193,0.896,0.173
	c0.872-0.104,0.946-0.417,1.034-0.653c0.24-0.654,0.765-1.25,1.344-1.035c0.551,0.203,0.808-0.176,1.059-0.276
	c0.252-0.101,0.403-0.024,0.63,0.151c0.227,0.175,0.528,1.031,0.806,1.512c0.276,0.479,0.657,0.88,0.884,1.007
	c0.226,0.125,0.648,0.161,0.723,0.263c0.076,0.102,0.523,0.446,0.825,0.521c0.303,0.076,1.306-0.167,1.457-0.167
	s0.584,0.251,0.812,0.503c0.227,0.253,0.274,0.271,0.476,0.449c0.202,0.176,0.501,0.305,0.477,0.027
	c-0.025-0.277-0.118-1.041-0.42-1.316c-0.302-0.277-0.47-0.57-0.697-0.57c-0.226,0-0.752-0.205-0.872-0.242
	c-0.437-0.137-0.818-0.361-0.98-0.505c-0.224-0.194-0.08-0.687-0.065-0.877c0.022-0.306-0.069-0.807-0.219-1.167
	c-0.345-0.828-0.345-1.139-0.444-1.512c-0.118-0.447-0.037-1.077-0.313-1.18c-0.277-0.101-0.931-0.238-1.379-0.17
	c-0.503,0.076-0.713,0.16-0.964,0.033c-0.252-0.128-0.462-0.396-0.966-0.347c-0.504,0.052-0.582-0.036-0.758-0.14
	c-0.175-0.101-0.438-0.125-0.689,0c-0.252,0.127-0.436,0.397-0.208,0.449c0.226,0.051,0.503,0.023,0.629,0.176
	c0.126,0.15,0.202,0.377,0.378,0.556c0.176,0.177,0.428,0.354,0.353,0.454c-0.076,0.1-0.403,0.275-0.479,0.226
	c-0.075-0.05-0.49-0.325-0.817-0.503c-0.327-0.177-0.647-0.467-0.958-0.361c-0.203,0.067-0.237,0.57-0.414,0.696
	c-0.177,0.124-0.456,0.236-0.607,0.068c-0.152-0.175-0.286-0.787-0.462-0.862c-0.176-0.074-0.634-0.217-1.137,0.034
	c-0.504,0.253-0.811,0.296-1.035,0.345c-0.31,0.069-0.689,0.104-1.034,0.207c-0.273,0.082-0.655,0.381-1.344,0.381
	c-0.481,0-1.406-0.062-1.482,0.24c-0.075,0.303-0.253,0.485-0.152,0.711c0.101,0.229-0.251,0.684-0.604,0.381
	c-0.353-0.304-0.202-1.06-0.126-1.311c0.075-0.252,0.543-2.071,0.745-2.298c0.201-0.229,0.689-1.179,1.068-1.413
	c0.269-0.166,0.654-0.143,0.755,0.107c0.101,0.252,0.126,0.981,0.025,1.107c-0.101,0.127-0.302,0.025-0.554,0.177
	c-0.251,0.151-0.665,0.724-0.64,0.95c0.026,0.229-0.065,0.357,0.313,0.333c0.377-0.024,0.482-0.133,0.583-0.058
	c0.101,0.074,0.432,0.187,0.759,0.035c0.327-0.15,0.898-0.153,0.848-1.035c-0.05-0.881-0.101-1.258,0.05-1.61
	c0.151-0.353,0.403-0.729,0.025-1.134c-0.378-0.402-0.652-0.813-1.154-0.863c-0.95-0.094-0.628,0.403-0.804,0.529
	c-0.177,0.125-0.641,0.259-1.069,0.184c-0.428-0.074-0.898-0.072-1.103,0.241c-0.248,0.38-0.428,0.539-0.479,0.866
	c-0.05,0.328-0.302,0.854-0.529,1.107c-0.227,0.252-0.256,0.439-0.372,0.815c-0.111,0.362-0.216,0.971-0.242,1.173
	c-0.025,0.202,0.462,1.788,0.638,2.268c0.177,0.479,0.428,1.512,0.63,1.688c0.201,0.177,0.402,0.15,0.629,0.05
	c0.227-0.099,0.529-0.149,0.654,0.103c0.126,0.25,0.034,1.136,0.068,1.343c0.042,0.248,0.285,0.622,0.411,0.748
	s0.05,0.274,0.151,0.479c0.101,0.2,0.252,0.274,0.503,0.377c0.252,0.102,0.504,0.15,0.604,0.379
	c0.101,0.227,0.125,0.428,0.428,0.629c0.302,0.201,0.654,0.453,0.654,0.705s-0.327,0.401-0.73,0.527
	c-0.403,0.126-1.034,0.154-1.158,0.377c-0.127,0.229-0.269,0.422,0.058,0.521c0.328,0.103,1.244,0.092,1.849-0.11
	c0.604-0.202,1.275-0.442,1.391-0.61C20.072,46.852,20.354,46.445,20.555,46.369z M13.976,47.188
	c0.014-0.529-0.691-0.844-1.02-1.014c-1.138-0.586-0.605-1.068-1.034-1.413c-0.386-0.309-0.674,1.037-0.571,1.218
	s0.104,0.722,0.386,0.875c0.283,0.152,0.713,0.608,0.919,0.779c0.156,0.133,1.045,0.647,1.149,0.828
	C13.806,48.461,13.963,47.719,13.976,47.188z M15.4,49.156c0.164,0.099,1.469,0.854,1.829,1.085s2.959,1.661,3.808,1.815
	c0.849,0.152,0.323-1.031-0.154-1.367c-0.56-0.394-1.212-0.528-2.137-0.965c-0.925-0.438-1.949-0.844-2.179-0.926
	C15.81,48.525,15.4,49.156,15.4,49.156z M9.49,42.336c-0.077,0.566,1.037,0.311,1.448,0.311s0.747,0.418,1.235,0.677
	c0.487,0.257,0.693,0.487,0.925,0.796c0.231,0.311,1.729,1.266,2.004,1.389c0.694,0.309,0.591-0.076,0.206-0.541
	c-0.466-0.558-1.588-2.232-1.922-2.488c-0.217-0.168-0.529-1.276-1.068-1.379c-0.54-0.104-0.275,0.137-1.068-0.141
	s-1.197-0.258-1.207,0.034c-0.011,0.321,0.292,0.53,0.05,0.635C9.799,41.751,9.618,41.873,9.49,42.336z M8.869,41.371
	c0.463-0.488,0.644-1.408,1.055-2.051c0.411-0.646,0.617-0.848,0.9-1.002c0.282-0.153,0.359-0.336,0.23-0.616
	c-0.098-0.218,0-0.283,0.463-0.54c0.462-0.258,0.749-0.344,0.903-0.857c0.103-0.343,0.847-1.643,0.551-1.758
	c-0.295-0.117-0.603-0.331-0.551-0.587c0.051-0.256,0.485-0.267,0.716-0.396c0.231-0.129,0.154-0.283-0.077-0.438
	c-0.232-0.151-0.849-0.179-1.157-0.127c-0.309,0.051-0.463,0.438-0.745,0.692c-0.283,0.258-0.499,0.074-0.848,0.539
	c-0.308,0.41-0.463,1.517-0.617,1.899c-0.154,0.386-0.231,0.284-0.386,0.54c-0.154,0.26,0.309,0.206,0.437,0.489
	c0.128,0.28,0.129,0.498-0.128,0.514c-0.85,0.054-0.339,0.4-0.39,0.812c-0.046,0.371-0.851,1.957-0.977,2.334
	C8.146,41.128,8.51,41.449,8.869,41.371z M6.912,38.396c0.242,0.127-0.026,0.804,0.269,1.08c0.215,0.199,0.583-0.312,0.655-0.793
	c0.089-0.601-0.215-1.562,0.081-2c0.295-0.438,0.55-0.709,0.577-1.173c0.026-0.462,0.361-0.819,0.577-1.104
	c0.216-0.283,0.794-0.752,0.901-1.034c0.106-0.284-0.092-0.518-0.469-0.413s-1.119,0.726-1.544,1.046
	c-0.217,0.163-1.237,1.393-1.34,1.574c-0.253,0.445,0.292,0.6-0.028,1.16c-0.118,0.207-0.075,0.51-0.184,0.689
	C6.111,37.918,6.428,38.318,6.912,38.396z M11.678,32.357c0.197-0.123,0.264-0.189,0.56-0.143c0.296,0.051,1.79,0.43,2.801,0.281
	c1.011-0.148,2.125-0.66,2.297-0.98s0.492-0.636,0.64-0.811c0.148-0.172,0.089-0.73-0.107-0.809
	c-0.197-0.071-0.668-0.299-0.915-0.053s-0.481,0.239-0.753,0.215c-0.271-0.023-0.881,0.032-1.526,0.194
	c-0.516,0.129-1.848,0.644-2.297,0.896c-0.44,0.248-0.86,0.723-1.008,0.869C11.222,32.169,11.481,32.479,11.678,32.357z
	 M12.542,9.188l-1.535,1.297c0,0,1.006-0.355,1.19,0.059c0.271,0.612,0.735,0.919,1.24,0.677c0.444-0.211,0.832-0.081,1.057,0.38
	c0.259,0.527,0.504,0.773,0.447,1.283c-0.103,0.925-0.899,3.726-0.359,5.704c0.271,0.999,0.154,1.438,1.258,2.8
	c0.584,0.72,1.773,1.671,1.928,1.876c0.154,0.206,0.206,0.565,0.411,0.462c0.206-0.103-0.025-0.976-0.437-1.439
	c-0.411-0.462-2.338-1.747-2.544-3.545c-0.206-1.799,0.052-2.929,0.257-3.392c0.206-0.462,0.25-1.333,0.25-1.591
	c0,0-0.004-0.577,0.345-0.505c0.267,0.055,0.368,1.019,0.368,1.378c0,0.36,0.065,1.027,0.065,1.027s0.308,0.719,0.308,0.925
	c0,0.205-0.308,0.925-0.205,1.233c0.103,0.309,0.514,0.566,0.668,0.822c0.154,0.257-0.104,0.668,0.102,0.925
	c0.206,0.258,0.822,1.182,1.182,1.285s1.466,0.492,1.671,0.286c0.206-0.205,0.668-0.794-0.103-1
	c-0.771-0.206-1.979-0.675-2.287-1.753c-0.309-1.079-0.221-3.314-1.608-6.14c-1.387-2.827-2.292-2.526-2.774-2.711
	C12.99,9.36,12.542,9.188,12.542,9.188z M30.333,11.265c-0.953,2.688-1.065,2.773-1.009,3.613c0.056,0.84,0.588,0.896,0.924,0.392
	c0.337-0.504,0.49-0.907,0.924-0.952c0.298-0.03,0.354,0.418,0.298,0.978c-0.056,0.56,0.375,0.171,0.655-0.221
	c0.279-0.392,0.411-1.645,0.468-2.316c0.057-0.672,0.182-1.191,0.215-1.743c0.036-0.551,0.143-1.241-0.138-1.241
	c-0.28,0-0.517,0.104-0.517-0.138c0-0.376,0.956-1.202,1.275-1.448c0.448-0.344,0.105-1.043-0.448-0.724
	C32.327,7.844,31.285,8.576,30.333,11.265z M14.212,7.693c0,0,0.9,0.986,1.068,0.931c0.168-0.056,0.39-0.677,0.61-0.634
	c0.424,0.083,0.575,0.837,0.631,1.117c0.056,0.28,0.451,0.56,0.601,0.76c0.252,0.336,0.84,2.548,0.953,3.109
	c0.112,0.561,0.723,4.83,1.009,5.21c0.504,0.672,1.037,0.663,0.7-0.392c-0.42-1.317-0.557-4.116-0.333-5.068
	c0.224-0.953-0.155-2.731-0.379-3.068c-0.224-0.336-0.065-0.887,0.104-1c0.168-0.112,0.818,0.311,0.931,0.758
	c0.112,0.449,0.212,3.035,0.321,3.447c0.112,0.42,0.404,0.601,0.506,0.896c0.126,0.366-0.001,0.729,0.167,1.065
	c0.168,0.336,0.849,1.473,1.144,1.796c0.344,0.379,0.724,0.517,0.817,0.221c0.1-0.318-1.121-1.513-1.4-2.969
	c-0.179-0.928-0.588-1.654-0.588-2.241c-0.124-0.318-0.113-0.571-0.174-0.744c-0.074-0.211,0.008-1.663-0.16-2
	c-0.168-0.336-1.35-1.26-1.592-1.155c-0.588,0.251-1.317-0.394-1.602-0.637c-0.196-0.167-1.094-0.646-1.094-0.646
	s1.777-0.689,2.174-0.87c0.36-0.164,1.068-0.333,1.068-0.333s-0.489,0.729-0.103,1.378c0.286,0.482,0.474,1.225,0.838,0.525
	c0.523-1.007,0.261-2.61,0.97-2.86c0.325-0.115,1.737,0.252,2.073,0.533c0.147,0.123,0.728,0.979,1.092,1.036
	c0.499,0.077,1.135,0.154,1.524,0.199c0.692,0.08,1.209,0.801,1.372,1.261c0.448,1.26-0.527,2.858-0.527,2.858
	s-0.206,0.473-0.137,1.344c0.066,0.854-0.036,1.4,0.356,1.4s0.392-1.681,0.672-2.297c0.28-0.615,0.354-1.176,0.418-1.688
	c0.069-0.551-0.013-2.443-0.068-2.724c-0.056-0.28-0.462-0.909-1.189-1.021c-0.728-0.112-1.905-0.56-1.625-1.009
	c0.28-0.448,2.129-0.225,2.409-0.168c0.28,0.057,0.918,0.213,1.061,0.992c0.138,0.759,0.056,2.573,0.034,2.896
	c-0.034,0.517,0.508-0.094,0.655,0.035c0.277,0.241-0.336,1.322-0.448,2.275c-0.112,0.952-0.518,1.813-0.181,1.87
	c0.335,0.056,0.896-1.513,1.456-2.857c0.56-1.344,0.467-1.21,0.467-1.378c0-0.168-0.164-0.708,0.172-0.931s1.448-0.31,2.104-0.379
	c0.479-0.051,0.75-0.301,0.688-0.517c-0.062-0.216-0.953-0.332-1.172-0.311c-0.344,0.035-1.055,0.208-1.227,0.035
	C31.258,5.622,31.5,4.156,31.5,4.156s1.647,0.206,2.314,0.343c0.386,0.081,2.844,1.04,3.516,1.265
	c0.672,0.224,2.114,1.218,2.114,1.218s-0.629-0.144-0.996,0.176c-0.582,0.509-1.162,0.509-1.709,0.509
	c-0.582,0-1.634-0.292-2.194,0.94c-0.561,1.232-1.037,3.109-1.149,4.286c-0.111,1.176-0.663,2.345-0.392,2.437
	c0.354,0.12,0.826-0.826,1.026-1.625c0.143-0.57,0.412-1.25,0.564-1.528c0.168-0.308,0.727-0.801,0.727-0.073
	s-0.428,1.395-0.764,2.291s-0.38,1.353-0.741,1.663c-0.588,0.505-0.78,1.009-0.336,0.953c0.345-0.044,0.862,0.025,0.654,0.335
	c-0.25,0.375-0.654,0.562-0.43,0.785c0.225,0.224,0.849,0.123,0.913-0.268c0.064-0.391,0.039-1.133,0.264-1.357
	c0.224-0.224,0.501,0.071,0.392,0.449c-0.173,0.597,0.448,0.322,0.241,1.011c-0.081,0.268-0.494,0.781-0.437,0.949
	c0.056,0.167,0.644,0.532-0.672,0.672c-0.39,0.041-2.109-0.533-2.58-0.794c-0.62-0.345-1.135-0.925-1.62-1.103
	c-0.532-0.196-1.629-0.517-1.792-0.586c-0.327-0.139-0.535-0.43-0.535-0.654c0-0.225-0.56-0.84-0.952-1.457
	c-0.393-0.616-0.953-1.345-0.784-2.689c0.167-1.345,0.167-3.585-0.336-4.257s-2.045-1.681-2.353-2.241
	c-0.309-0.559-1.135-0.96-1.64-0.96c-0.354,0-0.114,2.239-0.125,2.866C21.678,8.295,21.939,8.7,22.125,8.8
	c0.187,0.1,0.491,0.647,0.462,1.134c-0.034,0.586-0.576,0.346-0.452,1.137c0.084,0.533,0.365,0.393,0.589,0.421
	c0.2,0.025,0.297,0.893,0.168,1.008c-0.151,0.134-0.336,0.252-0.28,0.532c0.056,0.28,0.167,1.12,0.503,1.12
	c0.337,0,0.504-0.504,0.504-0.784c0-0.28,0.112-3.193,0.225-3.697c0.112-0.504-0.225-1.036-0.504-1.429
	c-0.28-0.392-1.072-0.872-0.959-1.376c0.112-0.504,0.251-1.037,0.413-0.964c0.31,0.137,0.267,0.728,0.379,0.896
	c0.113,0.167,1.896,1.441,2.268,1.949c0.309,0.42,0.317,2.437,0.309,2.773c-0.011,0.39-0.499,0.67-0.555,0.361
	c-0.105-0.575,0.216-1.442-0.343-1.481c-0.391-0.028-0.503,0.56-0.447,1.457c0.056,0.896,0.251,2.801,0.476,2.969
	c0.224,0.168,0.504,0.252,0.616,0.588c0.112,0.335,0.285,0.826,0.701,0.924c0.477,0.112,0.896,0.252,0.588,0.42
	c-0.484,0.264-1.177,0.558-1.513,0.587c-0.952,0.084-1.665,0.765-2.134,1.104c-0.62,0.449-1.068,1.379-1.344,2.034
	c-0.049,0.116-0.16,0.808-0.552,1.172c-0.464,0.431-1.083,0.725-1.378,0.861c-0.364,0.168-0.697,0.629-0.138,0.517
	c0.561-0.112,1.653-0.701,1.765-0.056c0.102,0.585-0.924,0.589-1.288,0.645c-0.351,0.055-1.093,0.504-0.729,0.868
	c0.258,0.257,0.997-0.446,1.513-0.42c0.56,0.028,1.261,0.364,1.765,0.42c0.504,0.056,1.525,0.125,1.933,0
	c0.364-0.112,1.849-1.12,2.605-1.063c0.562,0.041,1.175,0.513,1.68,0.756c0.644,0.308,1.33,0.742,2.787,0.713
	c1.466-0.028,2.445-0.605,2.585-0.241c0.135,0.351-0.179,0.429-0.208,0.793c-0.026,0.352,0.065,0.659-0.103,0.827
	c-0.213,0.213-0.763-0.039-0.931-0.207c-0.167-0.168-0.376-0.429-0.601-0.429s-0.98,0.057-0.925,0.225
	c0.056,0.168,0.28,0.28,0.785,0.28c0.392,0,1.12,0.925,1.344,1.036c0.225,0.113,0.84,0.562,0.729,0.786
	c-0.111,0.224-0.252,0.224-0.449,0.14c-0.257-0.11-0.293-0.403-0.573-0.347c-0.279,0.056-0.547,0.514-0.882,0.627
	c-0.393,0.131-1.166,0.193-1.569,0.056c-0.524-0.177-0.926-0.411-1.205-0.756c-0.33-0.41-0.588-0.98-0.98-1.597
	c-0.393-0.617-0.952-1.316-1.288-1.26c-0.336,0.056-0.449,0.784-0.392,1.428c0.06,0.69,0.392,1.121,0.28,1.401
	c-0.112,0.281-0.542,0.688-0.56,1.148c-0.028,0.67,0.427,0.374,0.427,0.654c0,0.279-0.074,0.724-0.298,0.666
	c-0.225-0.06-0.667-0.131-0.717,0.222c-0.056,0.393,0.173,0.303,0.476,0.362c0.287,0.06,0.277,0.489,0.333,0.656
	c0.056,0.169,0.105,0.377,0.357,0.489c0.419,0.187,0.488-0.241,0.93-0.168c0.424,0.07,0.488,0.17,0.758,0.252
	c0.364,0.11,0.875-0.016,0.988-0.184c0.112-0.169,0.022-0.628-0.146-0.852c-0.168-0.223-0.304-0.682-0.027-0.729
	c0.336-0.056,0.53,0.376,0.586,0.545s0.276,0.519,0.482,0.759c0.182,0.213,0.39,0.268,0.64,0.519
	c0.251,0.251,0.308,0.446,0.364,0.646c0.077,0.27,0.701,0.363,0.869,0.588c0.167,0.225,0.167,0.672,0.448,1.062
	c0.28,0.393,0.588,0.645,0.308,0.982c-0.281,0.334-1.037-0.562-1.568-1.123c-0.465-0.486-1.121-1.258-1.513-1.258
	c-0.393,0-0.393,0.418-0.224,1.203c0.167,0.783,0.252,1.229,0.364,1.287c0.112,0.057,0.304-0.031,0.417,0.021
	c0.112,0.057,0.508,0.816,1.012,1.152s1.069,0.603,1.573,0.435c0.504-0.168,0.332-0.601,0.444-0.711
	c0.113-0.113,0.729-0.339,1.008-0.339c0.28,0,0.341-0.887,0.341-1.055s-0.229-0.432-0.173-0.654
	c0.057-0.226,0.345-0.477,0.345-0.588c0-0.11,0.044-0.752,0.207-1.172c0.196-0.504,0.513-1.377,0.401-2.16
	c-0.063-0.448-0.055-0.869,0.112-1.431c0.168-0.561,0.257-0.792,0.168-1.288c-0.096-0.532-0.188-0.798-0.188-1.084
	c0-0.253-0.391-0.62-0.322-1.103c0.032-0.222,0.259-0.846,0.275-1.288c0.035-0.895-0.044-1.211-0.207-1.584
	c-0.229-0.529-0.602-1.056-0.792-1.126c-0.532-0.196-0.391-0.481-0.616-0.649c-0.141-0.106-0.363-0.449-0.083-0.504
	c0.28-0.057,0.477,0.055,0.869-0.084c0.422-0.151,0.393-0.616,0.617-0.616c0.223,0,0.938,0.165,0.869,0.337
	c-0.085,0.214-0.25,0.747,0.587,0.276c0.243-0.138,0.392-0.306,0.672-0.137c0.28,0.167,0.028,0.448-0.14,0.616
	s-0.756,0.336-0.756,0.449c0,0.112-0.113,0.392,0.224,0.392c0.336,0,0.755-0.252,0.868-0.364c0.111-0.112,0.189-0.365,0.42-0.365
	c0.28,0,0.168,0.224,0.672,0.168c0.504-0.056,0.701-0.28,0.924-1.177c0.225-0.896,0.473-2.642,0.585-3.65
	c0.111-1.009,0.173-1.754,0.206-1.953c0.047-0.276,0.189-0.559,0.302-0.67c0.112-0.112,0.448-0.896,0.672-1.065
	c0.224-0.167,0.729-0.111,0.503,0.393c-0.223,0.504-0.56,0.745-0.594,1.12c-0.03,0.34,0.203,0.84,0.147,1.121
	c-0.057,0.28-0.617,0.336-0.561,0.784c0.056,0.449,0.196,1.596,0.196,1.877c0,0.28-0.525,0.392-0.413,0.785
	c0.112,0.391,0.217,0.644,0.049,0.979c-0.168,0.336-0.452,0.91-0.508,1.134c-0.057,0.224-0.134,1.31-0.345,1.402
	c-0.368,0.161-0.896,0-1.164,0.209c-0.22,0.173-0.335,0.561-0.616,0.561c-0.28,0-0.504,0.167-0.728,0.336
	c-0.224,0.168-0.392,0.7-0.057,0.532c0.336-0.168,1.093-0.701,1.374-0.701c0.28,0,0.644,0,0.812-0.056s0.729-0.28,1.008-0.504
	c0.28-0.225,0.405-0.702,0.405-0.814c0-0.112,0.575-0.064,0.575,0.161c0,0.224,0.169,0.961,0.057,1.185
	c-0.112,0.225-0.517,0.561-0.517,0.561s-0.8,0.307-0.744,0.588c0.056,0.28,0.7,0.14,1.036,0.028c0.336-0.112,0.868-0.532,0.981-0.42
	c0.112,0.111-0.364,0.729-0.196,1.289c0.168,0.56,1.232,0.671,1.625,0.503c0.392-0.168,0.44-0.381,0.608-0.437
	c0.168-0.056,0.754-0.112,1.034,0c0.28,0.112,0.711,0.241,0.711,0.409s-0.561,0.308-0.449,0.589c0.113,0.28,0.309,0.28,0.645,0.224
	c0.336-0.056,0.728,0.057,1.176,0.168c0.448,0.112,1.847,0.506,2.421,0.713c0.321,0.116,0.667,0.595,0.667,1.379
	c0,0.784-0.029,1.644-0.253,1.654c-0.414,0.022-0.453-1.002-0.733-1.561c-0.302-0.604-1.009-1.037-1.12-0.925
	c-0.112,0.112-0.308,0.309,0.083,0.756c0.393,0.448,0.588,0.674,0.588,1.008c0,0.337,0.046,0.598,0.101,0.744
	c0.07,0.185,0.406,0.498,0.347,0.74c-0.082,0.34-0.857,0.262-1.082,0.063c-0.174-0.153-0.123-1.661-0.291-1.941
	c-0.169-0.28-0.7-1.345-1.149-1.568c-0.447-0.225-0.924,0-0.755,0.504c0.168,0.504,0.279,1.175,0.56,1.344
	c0.28,0.168,0.555,0.559,0.555,0.559l-0.052,0.338c0,0,0,0.785,0.112,1.011c0.113,0.225,0.448,0.392,0.504,0.56
	c0.056,0.168,0.336,1.01,0.616,1.401c0.28,0.391,0.173,0.552,0.565,0.552c0.393,0,0.511-0.312,0.623-0.703
	c0.112-0.392,1.308-0.308,1.308-0.308s-0.714,3.268-1.058,4.112c-0.128,0.315-1.953,3.961-2.615,5.027
	c-0.685,1.107-3.312,4.317-3.888,4.727c-0.42,0.301-2.185,1.819-2.24,1.933c-0.057,0.11-4.511,2.624-4.792,2.792
	c-0.279,0.168-4.077,1.449-4.917,1.562c-0.84,0.109-4.748,0.397-5.141,0.359c-0.627-0.062-3.444-0.361-4.315-0.546
	c-0.884-0.185-6.828-2.373-7.238-2.619c-0.568-0.34-5.498-4.312-5.722-4.479c-0.224-0.168-3.91-5.312-4.102-5.756
	c-0.168-0.395-1.529-3.436-1.585-3.826c-0.057-0.395-1.186-5.158-1.241-5.549c-0.057-0.395,0.01-3.776,0.069-4.449
	c0.067-0.767,0.577-3.438,0.689-3.999c0.111-0.56,1.064-3.188,1.792-4.757c0.729-1.568,1.765-2.828,2.942-4.228
	c1.176-1.401,4.545-4.319,4.826-4.711C13.573,7.944,14.212,7.693,14.212,7.693z M4.595,34.131c-0.011,0.243,0.757,0.529,0.552,0.863
	c-0.429,0.701,0.639,0.977,0.432,1.391c-0.207,0.413-0.343,0.896-0.586,0.758c-0.31-0.172-1.19-3.08-1.328-3.769
	c-0.07-0.353-0.31-2.481-0.276-2.964c0.034-0.483,0.568-0.648,0.62-0.689c0.173-0.138,1.626-0.734,1.827-0.827
	c0.334-0.154,1.31-1.036,1.414-1.242c0.103-0.206,0.145-0.737,0.172-1.172c0.023-0.368,0.092-0.758-0.137-0.828
	c-0.271-0.081-0.569,0.088-0.621,0.345c-0.052,0.257-0.211,0.843-0.448,0.793c-0.437-0.092-0.655,0.731-0.655,0.966
	c0,0.506-0.954,0.586-0.931,0.172c0.014-0.246,0.448-1.655,0.46-2.172c0.008-0.384-0.403-0.734-0.207-1.126
	c0.157-0.314,0.234-1.492,0.283-1.688c0.207-0.379,1.137-0.655,0.69,0.552C5.723,23.851,5.543,24.31,5.94,24.47
	c0.23,0.091,0.378,0.083,0.743-0.701c0.241-0.517,1.137-0.275,0.724,0.586c-0.355,0.741,0.468,0.635,0.648,0.711
	c0.179,0.078,0.212,0.431,0.183,0.667c-0.04,0.332,0.34,0.404,0.621,0.345c0.28-0.06,1.467-0.688,2.176-0.555
	c0.822,0.154,1.169,0.279,1.427,0.383c0.257,0.103,0.668,0.103,0.565-0.258c-0.103-0.359,0.285-1.014,0.336-1.271
	c0.051-0.257,0.551-0.526,0.459-0.804c-0.091-0.277-0.975-0.623-1.181-0.648c-0.234-0.029-0.437,0.771-0.488,1.233
	c-0.052,0.462-0.767,0.467-0.921,0.059c-0.207-0.551-0.517-0.586-0.654-1.31c-0.095-0.498-0.552-0.518-0.897-0.792
	c-0.613-0.492-0.112-0.862-0.138-1.069c-0.073-0.602-0.694-0.678-0.903-0.434c-0.217,0.253-0.573-0.036-0.805-0.062
	c-0.342-0.038-1.2,0.102-1.566,0.15c-0.518,0.069-0.584,0.323-0.658,0.53c-0.172,0.482-1.164-0.182-1.164-0.182
	s1.285-2.724,1.547-3.485c0.224-0.653,1.316-2.287,1.378-2.448c0.172-0.448,0.792,0.242,0.206,1.069
	c-0.371,0.522-1.412,2.271-1.723,3.205c-0.19,0.568,0.75,0.498,0.93,0.138c0.117-0.234,1.002-2.003,1.414-2.723
	c0.411-0.719,1.371-2.38,1.551-2.792c0.177-0.405,0.587-0.794,0.793-1.206c0.206-0.412,0.877-0.447,0.62,0.413
	c-0.26,0.875-1.518,2.873-1.827,3.31c-0.293,0.415-1.224,2.052-1.275,2.309c-0.052,0.257-0.12,0.638,0.034,0.689
	c0.154,0.051,0.863-0.208,1.069-0.517c0.205-0.308,0.958-2.294,1.215-2.654c0.257-0.359,0.82-1.536,1.128-1.896
	c0.309-0.359,1.019,0.136,0.69,0.689c-0.759,1.275-1.545,2.853-1.862,3.274c-0.37,0.493,0.036,1.206,0.621,0.621
	c0.513-0.514,0.743-1.124,0.999-1.586c0.257-0.463,0.639-1.087,0.793-1.344c0.155-0.256,0.785-0.033,0.682,0.378
	c-0.103,0.411-0.615,1.312-0.924,1.62c-0.308,0.309-0.484,0.691-0.639,0.999c-0.154,0.309,0,0.575,0.322,0.781
	c0.408,0.262,0.61,0.244,0.919,0.552c0.308,0.308,0.61,0.672,0.919,0.827c0.308,0.155,0.745,0.263,0.951,0.674
	c0.206,0.411,0.514,1.156,1.053,1.362c0.438,0.167,0.566,0.333,0.849,0.694c0.403,0.514,0.565,0.638,0.925,0.616
	c0.437-0.026,0.411,0.514,0.488,0.925c0.048,0.257-0.386,1.027-0.386,1.439s0.09,1.567-0.257,1.748
	c-0.245,0.127-0.788-0.179-1.003,0.012c-0.206,0.184-0.714,0.089-0.85-0.114c-0.183-0.277-0.551-0.3-0.712-0.163
	c-0.276,0.237-0.63,0.176-0.828-0.021c-0.137-0.138-0.505-0.024-0.731,0.074c-0.652,0.283-0.552-0.302-0.552-0.302
	s0.181-0.51,0.412-0.51c0.185,0,0.461,0.151,0.616,0.1c0.146-0.048,0.339-0.481,0.554-0.649c0.218-0.17,0.5-0.232,0.368-0.574
	c-0.08-0.206,0.122-0.385,0.276-0.437c0.296-0.098,0.667-0.068,0.805-0.23c0.105-0.123,0.083-0.702-0.276-1.01
	c-0.36-0.309-1.324-0.04-1.425,0.689c-0.128,0.925-0.986,1.298-1.533,1.44c-0.694,0.179-0.927,0-1.492-0.308
	c-0.566-0.309-1.76-0.319-2.234-0.141c-0.417,0.157-0.669,0.801-0.301,0.801c0.367,0,1.248,0.161,1.642,0.161
	c0.565,0,1.034,0.207,1.248,0.653c0.245,0.51,0.229,0.508-0.488,0.41c-1.484-0.202-2.936,0.084-3.758,0.316
	c-0.297,0.084-1.328,0.992-1.482,1.068c-0.111,0.056-0.857,0.467-1.379,0.861C4.006,31.251,4.09,31.701,4.183,32.2
	c0.023,0.127,0.169,0.966,0.207,1.104c0,0,0.459-0.508,0.586-0.656c0.126-0.147,1.069-0.688,1.551-1.274
	c0.438-0.532,1.714-1.265,2.107-1.45c1.121-0.527,2.397-0.474,2.697-0.363c0.302,0.111,0.914,0.551,0.531,0.938
	c-0.382,0.388-1.039,0.888-1.312,1.053c-0.273,0.167-0.55-0.036-0.742,0.157s-0.711,0.641-0.938,0.63
	c-0.723-0.034-1.631,0.187-1.896,0.242c-0.483,0.103-1.379,0.425-1.724,0.665C4.905,33.488,4.606,33.893,4.595,34.131z"/>
<path fill="#515661" d="M66.944,31.22v9.074v1.737c0,0.27,0.419,0.539,0.689,0.658c0.54,0.242,1.048,0.301,1.048,0.301h2.307
	c0,0,1.647,0.09,2.965-0.779c1.562-1.027,2.007-3.234,1.948-4.941c-0.081-2.306-0.933-3.576-2.277-4.762
	c-1.527-1.348-4.822-1.288-4.822-1.288H66.944z M66.944,20.017l-0.03,7.967c0,0,0.049,0.412,0.179,0.63
	c0.18,0.299,0.629,0.39,0.629,0.39h1.198c0,0,0.779-0.031,1.378-0.181c0.431-0.107,1.62-0.837,2.366-1.707
	c0.54-0.629,1.048-2.097,1.048-3.085c0-2.307-0.839-3.236-1.977-3.805c-1.535-0.768-3.505-0.779-3.505-0.779h-0.718
	c0,0-0.359,0-0.48,0.18C66.928,19.787,66.944,20.017,66.944,20.017z M60.624,17.74c0-0.66,1.258-0.479,1.258-0.479h7.338
	c0,0,4.496,0.164,6.26,2.097c3.446,3.774,1.621,7.811,0.479,8.837c-0.898,0.81-2.366,1.229-2.366,1.229s2.187,0.479,3.685,1.827
	c1.689,1.521,3.766,6.912,1.557,10.452c-2.036,3.266-4.73,3.788-8.088,3.654c-3.025-0.118-2.456-0.448-5.602-0.391
	c-2.605,0.051-3.975,0.153-3.975,0.153s-1.066,0.104-0.942-0.577c0.122-0.668,0.699-0.546,1.593-1.134
	c0.621-0.41,1.034-1.496,1.198-2.457c0.209-1.229,0.239-2.994,0.239-2.994V22.682c0,0-0.03-0.27-0.03-0.539
	c0-1.898-1.528-3.534-2.067-3.714C60.654,18.249,60.654,18.13,60.624,17.74z"/>
<path fill="#515661" d="M89.262,30.385h6.409l-3.414-8.358L89.262,30.385z M78.777,44.701c0.175-0.887,0.734-0.176,1.916-1.438
	c0.869-0.931,1.468-1.857,2.037-3.057c0.289-0.607,0.72-1.799,0.72-1.799l6.62-18.03c0,0,0.089-0.629,0.089-1.079
	c0-0.419-0.074-0.838-0.074-0.838s0.317-0.042,0.524-0.09c0.193-0.044,0.643-0.164,0.643-0.164l2.921-0.944l8.147,20.068
	c0,0,1.298,3.562,2.697,5.271c0.539,0.66,1.168,1.198,1.887,1.229c1.166,0.048,0.509,1.257-0.239,1.257
	c-0.601,0-2.815-0.059-4.731-0.029c-2.129,0.029-6.053,0.182-6.053,0.182s-0.838,0.062-0.658-0.569
	c0.232-0.827,0.868-0.657,1.348-0.75c1.214-0.228,2.787-0.81,3.058-2.035c0.188-0.86-0.419-2.456-0.419-2.456l-2.758-6.828h-7.969
	l-2.274,6.469c0,0-0.3,0.896-0.358,1.318c-0.062,0.418-0.062,1.887,0.539,2.604c0.6,0.718,2.217,0.928,2.995,0.987
	c0.777,0.061,0.181,1.166-0.421,1.166c-0.6,0-3.055-0.088-4.854-0.146c-1.799-0.062-4.793,0.181-4.793,0.181
	S78.777,45.331,78.777,44.701z"/>
<path fill="#515661" d="M105.646,17.774c0,0,0.776,0.06,1.767,0.12c0.958,0.058,2.485,0.12,2.485,0.12l10.813-0.03
	c0,0,1.767,0,3.534-0.149c1.374-0.117,3.477-0.27,3.477-0.27s-0.123,1.513-0.449,3.355c-0.33,1.857-0.602,2.996-0.602,2.996
	s-0.148,0.659-0.326,0.779c-0.183,0.12-1.171,0.479-1.171,0.479s0.228-1.257,0.183-1.917c-0.062-0.868-0.313-2.27-0.9-2.666
	c-1.018-0.689-2.247-0.66-3.204-0.719c-0.959-0.06-2.547,0.03-2.966,0.329c-0.42,0.3-0.357,1.139-0.357,1.139v18.241
	c0,0-0.062,2.276,0.986,3.056c0.938,0.696,2.434,1.119,2.434,1.119s1.062,0,0.832,0.768c-0.156,0.519-0.81,0.602-0.81,0.602
	s-3.804-0.13-5.66-0.148c-2.728-0.029-4.983,0.127-5.821,0.148c-1.062,0.031-0.802-1.285,0.152-1.396
	c0.509-0.061,1.992-0.172,2.973-1.238c1.021-1.108,1.168-3.354,1.168-3.354V22.147c0,0-0.062-1.253-0.449-1.678
	c-0.657-0.718-2.364-0.659-3.742-0.539c-1.744,0.151-2.778,0.802-3.234,1.918c-0.479,1.167-0.689,2.665-1.05,2.846
	c-0.381,0.19-1.288,0.419-1.288,0.419s0.407-1.833,0.721-4.014C105.348,19.631,105.646,17.774,105.646,17.774z"/>
<path fill="#515661" d="M130.089,17.504c-0.931-0.068-1.144,1.239-0.596,1.361c0.667,0.148,1.226,0.046,1.823,0.735
	c0.724,0.832,0.539,2.636,0.539,2.636V38.71c0,0,0.002,1.849-0.119,2.755c-0.18,1.35-0.766,1.836-1.483,2.137
	c-0.644,0.271-1.153,0.307-1.241,0.979c-0.086,0.653,0.635,0.571,0.635,0.571s1.734-0.122,4.013-0.153
	c2.276-0.028,4.629,0.153,5.349,0.153c0.721,0,1.154-1.154,0.094-1.31c-1.17-0.166-2.3-0.37-3.141-1.149
	c-0.65-0.604-0.508-2.188-0.508-2.188v-9.764h13.062v9.764c0,0-0.011,2.188-1.089,2.549c-1.077,0.357-1.642,0.396-2.399,0.518
	c-0.789,0.126-1.508,1.58-0.608,1.58s3.681-0.213,5.896-0.213c1.289,0,3.377,0.138,3.68,0.15c0.669,0.029,0.943-0.263,1.062-0.67
	c0.151-0.515-0.486-0.638-0.912-0.789c-0.5-0.179-1.002-0.363-1.428-1.031c-0.512-0.806-0.367-2.541-0.367-2.541V22.296
	c0,0-0.092-1.707,0.479-2.545c0.625-0.922,0.866-0.81,1.407-0.988c0.709-0.238,0.869-1.288,0.238-1.229
	c-0.668,0.063-2.875,0.199-4.135,0.179c-1.917-0.03-3.98-0.139-4.464-0.155c-0.881-0.031-1.056,1.336-0.396,1.336
	c0.723,0,1.899,0.189,2.463,1.006c0.601,0.869,0.597,2.456,0.57,2.486v6.021H135.45v-6.112c0,0-0.062-2.066,0.868-2.696
	c0.666-0.45,1.289-0.479,2.065-0.599c0.778-0.12,1.229-1.497,0.39-1.438c-0.838,0.06-3.023,0.06-4.939,0.06
	C131.916,17.624,130.809,17.594,130.089,17.504z"/>
<path fill="#515661" d="M61.733,5.276v0.517l0.664,0.053l0.148,0.147v3.648c0,0.812,0.053,1.434,0.464,1.972
	c0.433,0.549,1.213,0.864,2.256,0.864c1.982,0,2.784-0.854,2.784-2.783V6.035l0.147-0.18l0.644-0.063V5.276h-2.394v0.517
	l0.674,0.063l0.159,0.18v3.553c0,1.402-0.433,2.056-1.603,2.056c-1.266,0-1.719-0.601-1.719-1.961v-3.69l0.147-0.147l0.654-0.053
	V5.276H61.733z"/>
<polygon fill="#515661" points="70.497,12.351 72.901,12.351 72.901,11.844 72.248,11.76 72.078,11.57 72.078,6.689 75.727,12.351 
	76.908,12.351 76.908,6.056 77.087,5.855 77.709,5.771 77.709,5.276 75.305,5.276 75.305,5.771 75.948,5.855 76.138,6.056 
	76.138,10.568 72.911,5.561 72.911,5.276 70.486,5.276 70.486,5.792 71.161,5.845 71.309,5.993 71.309,11.57 71.119,11.76 
	70.497,11.844 "/>
<polygon fill="#515661" points="79.467,12.351 82.619,12.351 82.619,11.834 81.912,11.781 81.744,11.612 81.744,5.993 81.912,5.845 
	82.619,5.792 82.619,5.276 79.467,5.276 79.467,5.792 80.163,5.845 80.332,5.993 80.332,11.612 80.163,11.781 79.467,11.834 "/>
<polygon fill="#515661" points="83.922,5.276 83.922,5.792 84.618,5.919 87.012,12.372 88.076,12.372 90.416,5.929 91.102,5.792 
	91.102,5.276 88.793,5.276 88.793,5.792 89.426,5.845 89.54,6.003 87.844,10.812 86.096,6.003 86.21,5.845 86.82,5.792 86.82,5.276 
	"/>
<polygon fill="#515661" points="92.409,12.351 98.07,12.351 98.07,10.464 97.354,10.464 97.174,11.581 97.038,11.75 94.591,11.75 
	94.591,9.008 95.962,9.008 96.107,9.156 96.214,9.915 96.836,9.915 96.836,7.469 96.214,7.469 96.107,8.229 95.962,8.375 
	94.591,8.375 94.591,5.866 96.688,5.866 96.826,6.003 96.982,6.931 97.723,6.931 97.723,5.276 92.409,5.276 92.409,5.792 
	93.052,5.845 93.221,5.993 93.221,11.612 93.052,11.781 92.409,11.834 "/>
<path fill="#515661" d="M102.143,5.877v2.751c0.137,0.01,0.266,0.01,0.379,0.01c1.129,0,1.668-0.442,1.668-1.412
	c0-0.865-0.539-1.35-1.562-1.35L102.143,5.877L102.143,5.877z M99.98,5.276h3.205c1.635,0,2.479,0.632,2.479,1.803
	c0,0.97-0.622,1.581-1.812,1.804c0.506,0.115,0.864,0.315,1.104,0.654c0.328,0.463,0.412,1.032,0.612,1.561
	c0.223,0.579,0.537,0.737,1.244,0.737h0.136v0.506c-0.368,0.052-0.728,0.084-1.054,0.084c-0.453,0-0.845-0.127-1.098-0.327
	c-0.547-0.422-0.645-0.896-0.812-1.402c-0.325-1.002-0.602-1.456-1.666-1.456h-0.18v2.372l0.17,0.169l0.644,0.053v0.517h-2.974
	v-0.517l0.621-0.053l0.17-0.169v-5.62l-0.17-0.147l-0.621-0.053V5.276H99.98z"/>
<path fill="#515661" d="M108.616,12.119c0.653,0.231,1.36,0.348,2.034,0.348c1.729,0,2.795-0.907,2.795-2.162
	c0-0.622-0.338-1.191-0.948-1.582c-0.622-0.4-1.183-0.558-1.509-0.759c-0.559-0.337-0.854-0.653-0.854-1.138
	c0-0.58,0.476-1.002,1.244-1.002c0.337,0,0.58,0.053,0.771,0.148l0.147,0.147l0.181,1.097h0.76V5.507
	c-0.664-0.231-1.329-0.358-1.982-0.358c-1.508,0-2.49,0.906-2.49,2.077c0,0.517,0.256,1.033,0.739,1.445
	c0.464,0.389,0.959,0.569,1.382,0.78c0.748,0.38,1.129,0.759,1.129,1.329c0,0.58-0.507,1.001-1.361,1.001
	c-0.325,0-0.631-0.053-0.926-0.147l-0.14-0.158l-0.169-1.266h-0.801L108.616,12.119L108.616,12.119z"/>
<polygon fill="#515661" points="115.561,12.351 118.714,12.351 118.714,11.834 118.007,11.781 117.839,11.612 117.839,5.993 
	118.007,5.845 118.714,5.792 118.714,5.276 115.561,5.276 115.561,5.792 116.258,5.845 116.426,5.993 116.426,11.612 
	116.258,11.781 115.561,11.834 "/>
<polygon fill="#515661" points="120.407,5.276 120.407,7.142 121.133,7.142 121.303,6.014 121.473,5.877 122.736,5.877 
	122.736,11.612 122.559,11.781 121.872,11.834 121.872,12.351 125.023,12.351 125.023,11.834 124.34,11.781 124.16,11.612 
	124.16,5.877 125.426,5.877 125.583,6.014 125.764,7.142 126.49,7.142 126.49,5.276 "/>
<polygon fill="#515661" points="127.742,5.276 127.742,5.792 128.417,5.898 130.441,9.567 130.441,11.623 130.273,11.771 
	129.566,11.824 129.566,12.351 132.729,12.351 132.729,11.824 132.014,11.771 131.844,11.623 131.844,9.313 133.848,5.908 
	134.471,5.792 134.471,5.276 132.171,5.276 132.171,5.782 132.803,5.898 132.889,6.067 131.381,8.65 129.936,5.972 130.029,5.845 
	130.621,5.792 130.621,5.276 "/>
<path fill="#515661" d="M142.621,5.792c-1.17,0-2.003,1.118-2.003,3.004c0,1.94,0.854,3.079,1.981,3.079
	c1.159,0,1.991-1.139,1.991-3.005C144.593,6.921,143.771,5.792,142.621,5.792z M139.047,8.776c0-1.149,0.369-2.077,1.087-2.741
	c0.663-0.612,1.485-0.917,2.466-0.917c0.908,0,1.678,0.274,2.32,0.823c0.812,0.696,1.255,1.708,1.255,2.899
	c0,1.118-0.39,2.066-1.128,2.752c-0.645,0.601-1.486,0.928-2.373,0.928C140.492,12.519,139.047,11.022,139.047,8.776z"/>
<polygon fill="#515661" points="148.121,12.351 151.23,12.351 151.23,11.834 150.493,11.781 150.314,11.612 150.314,9.156 
	151.727,9.156 151.875,9.292 151.98,10.062 152.602,10.062 152.602,7.606 151.98,7.606 151.875,8.375 151.727,8.513 150.314,8.513 
	150.314,5.887 152.35,5.887 152.486,6.024 152.645,7.047 153.371,7.047 153.371,5.276 148.078,5.276 148.078,5.792 148.754,5.845 
	148.923,5.993 148.923,11.612 148.754,11.781 148.121,11.834 "/>
<line fill="none" stroke="#515661" stroke-width="2.1365" stroke-miterlimit="3.8637" x1="60.656" y1="51.652" x2="154.607" y2="51.652"/>
<path fill="#FFFFFF" d="M4.581,34.439c-0.011,0.244,0.757,0.528,0.552,0.862c-0.429,0.701,0.639,0.978,0.432,1.392
	s-0.343,0.895-0.586,0.758c-0.31-0.172-1.19-3.08-1.328-3.768c-0.07-0.354-0.31-2.482-0.276-2.966
	c0.034-0.481,0.568-0.647,0.62-0.688c0.173-0.137,1.626-0.732,1.827-0.826c0.334-0.154,1.31-1.036,1.414-1.243
	c0.103-0.205,0.145-0.736,0.172-1.172C7.43,26.421,7.5,26.031,7.271,25.96C7,25.88,6.701,26.048,6.649,26.306
	c-0.052,0.256-0.211,0.842-0.448,0.793c-0.437-0.092-0.655,0.73-0.655,0.965c0,0.508-0.954,0.586-0.931,0.172
	c0.014-0.244,0.448-1.654,0.46-2.172c0.008-0.383-0.403-0.732-0.207-1.125c0.157-0.314,0.234-1.492,0.283-1.688
	c0.207-0.379,1.137-0.655,0.69,0.552c-0.133,0.357-0.313,0.816,0.084,0.978c0.23,0.092,0.378,0.082,0.743-0.701
	c0.241-0.518,1.137-0.275,0.724,0.586C7.037,25.407,7.86,25.3,8.04,25.376c0.179,0.078,0.212,0.432,0.183,0.668
	c-0.04,0.332,0.34,0.404,0.621,0.344c0.28-0.059,1.467-0.688,2.176-0.555c0.822,0.154,1.169,0.279,1.427,0.383
	c0.257,0.104,0.668,0.104,0.565-0.258c-0.103-0.359,0.285-1.014,0.336-1.271c0.051-0.256,0.551-0.525,0.459-0.803
	c-0.091-0.277-0.975-0.623-1.181-0.648c-0.234-0.029-0.437,0.771-0.488,1.232c-0.052,0.463-0.767,0.467-0.921,0.059
	c-0.207-0.551-0.517-0.586-0.654-1.309c-0.095-0.498-0.552-0.519-0.897-0.793c-0.613-0.492-0.112-0.861-0.138-1.068
	c-0.073-0.603-0.694-0.678-0.903-0.435c-0.217,0.253-0.573-0.036-0.805-0.062c-0.342-0.038-1.2,0.102-1.566,0.15
	c-0.518,0.068-0.584,0.322-0.658,0.529c-0.172,0.482-1.164-0.182-1.164-0.182s1.285-2.725,1.547-3.485
	c0.224-0.653,1.316-2.287,1.378-2.448c0.172-0.448,0.792,0.242,0.206,1.069c-0.371,0.522-1.412,2.271-1.723,3.205
	c-0.19,0.567,0.75,0.498,0.93,0.138c0.117-0.234,1.002-2.003,1.414-2.723c0.411-0.719,1.371-2.38,1.551-2.792
	c0.177-0.405,0.587-0.794,0.793-1.206c0.206-0.412,0.877-0.447,0.62,0.413c-0.26,0.875-1.518,2.873-1.827,3.31
	c-0.293,0.415-1.224,2.053-1.275,2.309c-0.052,0.258-0.12,0.639,0.034,0.689c0.154,0.051,0.863-0.208,1.069-0.518
	c0.205-0.307,0.958-2.293,1.215-2.653c0.257-0.358,0.82-1.536,1.128-1.896c0.309-0.359,1.019,0.136,0.69,0.689
	c-0.759,1.274-1.545,2.853-1.862,3.274c-0.37,0.492,0.036,1.205,0.621,0.621c0.513-0.515,0.743-1.125,0.999-1.586
	c0.257-0.463,0.639-1.088,0.793-1.344c0.155-0.257,0.785-0.033,0.682,0.377c-0.103,0.411-0.615,1.312-0.924,1.62
	c-0.308,0.31-0.484,0.69-0.639,0.999c-0.154,0.309,0,0.575,0.322,0.781c0.408,0.262,0.61,0.244,0.919,0.552
	c0.308,0.308,0.61,0.673,0.919,0.827c0.308,0.154,0.745,0.264,0.951,0.674c0.206,0.411,0.514,1.156,1.053,1.363
	c0.438,0.166,0.566,0.332,0.849,0.693c0.403,0.514,0.565,0.639,0.925,0.615c0.437-0.025,0.411,0.514,0.488,0.926
	c0.048,0.256-0.386,1.027-0.386,1.439s0.09,1.566-0.257,1.749c-0.245,0.127-0.788-0.18-1.003,0.012
	c-0.206,0.185-0.714,0.089-0.85-0.116c-0.183-0.275-0.551-0.299-0.712-0.162c-0.276,0.237-0.63,0.176-0.828-0.021
	c-0.137-0.137-0.505-0.023-0.731,0.074c-0.652,0.284-0.552-0.303-0.552-0.303s0.181-0.51,0.412-0.51
	c0.185,0,0.461,0.152,0.616,0.102c0.146-0.049,0.339-0.482,0.554-0.65c0.218-0.17,0.5-0.232,0.368-0.574
	c-0.08-0.205,0.122-0.385,0.276-0.436c0.296-0.1,0.667-0.068,0.805-0.23c0.105-0.123,0.083-0.703-0.276-1.01
	c-0.36-0.309-1.324-0.041-1.425,0.688c-0.128,0.926-0.986,1.299-1.533,1.441c-0.694,0.178-0.927,0-1.492-0.309
	c-0.566-0.309-1.76-0.318-2.234-0.141c-0.417,0.156-0.669,0.801-0.301,0.801c0.367,0,1.248,0.16,1.642,0.16
	c0.565,0,1.034,0.207,1.248,0.654c0.245,0.51,0.229,0.508-0.488,0.41c-1.484-0.203-2.936,0.084-3.758,0.314
	c-0.297,0.084-1.328,0.992-1.482,1.068c-0.111,0.057-0.857,0.467-1.379,0.861c-0.521,0.396-0.437,0.846-0.344,1.346
	c0.023,0.127,0.169,0.965,0.207,1.104c0,0,0.459-0.506,0.586-0.655c0.126-0.146,1.069-0.688,1.551-1.272
	c0.438-0.533,1.714-1.267,2.107-1.451c1.121-0.527,2.397-0.474,2.697-0.363c0.302,0.111,0.914,0.551,0.531,0.939
	c-0.382,0.387-1.039,0.887-1.312,1.053s-0.55-0.037-0.742,0.156c-0.192,0.192-0.711,0.641-0.938,0.631
	c-0.723-0.035-1.631,0.186-1.896,0.242c-0.483,0.102-1.379,0.424-1.724,0.664C4.89,33.797,4.591,34.201,4.581,34.439z"/>
</svg>
